<?xml version="1.0" encoding="utf-8"?>
<!-- Generator: Adobe Illustrator 16.0.0, SVG Export Plug-In . SVG Version: 6.00 Build 0)  -->
<!DOCTYPE svg PUBLIC "-//W3C//DTD SVG 1.1//EN" "http://www.w3.org/Graphics/SVG/1.1/DTD/svg11.dtd">
<svg version="1.1" id="Layer_1" xmlns="http://www.w3.org/2000/svg" xmlns:xlink="http://www.w3.org/1999/xlink" x="0px" y="0px"
	 width="818.827px" height="462.891px" viewBox="0 0 818.827 462.891" enable-background="new 0 0 818.827 462.891"
	 xml:space="preserve">
<g>
	<rect x="161.253" y="243.226" stroke="#000000" stroke-width="12" stroke-miterlimit="10" width="45.633" height="75.168"/>
	<rect x="93.73" y="243.226" stroke="#000000" stroke-width="12" stroke-miterlimit="10" width="45.634" height="75.168"/>
	<rect x="26.208" y="243.226" stroke="#000000" stroke-width="12" stroke-miterlimit="10" width="45.633" height="75.168"/>
	<g>
		<path d="M69.569,199.704c0,0,0.182,0.311,0.465,0.854c0.149,0.272,0.315,0.603,0.497,0.981c0.18,0.378,0.406,0.806,0.609,1.271
			c0.415,0.933,0.906,2.021,1.373,3.186c0.465,1.166,0.878,2.409,1.255,3.651c0.191,0.622,0.506,1.243,0.83,1.855
			c0.319,0.611,0.595,1.214,0.623,1.797c0.04,0.582-0.15,1.146-0.419,1.68c-0.274,0.534-0.609,1.039-1.015,1.506
			c-0.39,0.466-0.837,0.894-1.31,1.271c-0.243,0.189-0.47,0.367-0.68,0.531c-0.246,0.163-0.472,0.314-0.676,0.45
			c-0.426,0.271-0.805,0.485-1.1,0.631s-0.452,0.224-0.452,0.224h-1.2c0,0-0.157-0.078-0.452-0.224s-0.674-0.359-1.1-0.631
			c-0.204-0.136-0.43-0.287-0.676-0.45c-0.21-0.164-0.438-0.342-0.68-0.531c-0.473-0.378-0.92-0.806-1.31-1.271
			c-0.406-0.467-0.741-0.972-1.015-1.506c-0.269-0.534-0.458-1.098-0.419-1.68c0.027-0.583,0.303-1.186,0.623-1.797
			c0.323-0.612,0.639-1.233,0.83-1.855c0.376-1.242,0.79-2.485,1.255-3.651c0.467-1.165,0.958-2.253,1.373-3.186
			c0.204-0.466,0.43-0.894,0.609-1.271c0.182-0.379,0.348-0.709,0.497-0.981c0.283-0.544,0.465-0.854,0.465-0.854H69.569z"/>
	</g>
	<g>
		<path d="M92.2,199.704c0,0,0.182,0.311,0.465,0.854c0.149,0.272,0.315,0.603,0.497,0.981c0.179,0.378,0.406,0.806,0.609,1.271
			c0.415,0.933,0.906,2.021,1.373,3.186c0.465,1.166,0.878,2.409,1.255,3.651c0.191,0.622,0.506,1.243,0.83,1.855
			c0.319,0.611,0.595,1.214,0.623,1.797c0.04,0.582-0.15,1.146-0.419,1.68c-0.274,0.534-0.609,1.039-1.015,1.506
			c-0.39,0.466-0.837,0.894-1.31,1.271c-0.243,0.189-0.47,0.367-0.68,0.531c-0.246,0.163-0.472,0.314-0.676,0.45
			c-0.426,0.271-0.805,0.485-1.1,0.631s-0.452,0.224-0.452,0.224H91c0,0-0.157-0.078-0.452-0.224s-0.674-0.359-1.1-0.631
			c-0.204-0.136-0.43-0.287-0.676-0.45c-0.21-0.164-0.438-0.342-0.68-0.531c-0.473-0.378-0.92-0.806-1.31-1.271
			c-0.406-0.467-0.741-0.972-1.015-1.506c-0.269-0.534-0.458-1.098-0.419-1.68c0.027-0.583,0.303-1.186,0.623-1.797
			c0.323-0.612,0.639-1.233,0.83-1.855c0.376-1.242,0.79-2.485,1.255-3.651c0.467-1.165,0.958-2.253,1.373-3.186
			c0.204-0.466,0.43-0.894,0.609-1.271c0.182-0.379,0.348-0.709,0.497-0.981c0.283-0.544,0.465-0.854,0.465-0.854H92.2z"/>
	</g>
	<g>
		<path d="M114.832,199.704c0,0,0.182,0.311,0.465,0.854c0.149,0.272,0.315,0.603,0.497,0.981c0.18,0.378,0.406,0.806,0.609,1.271
			c0.415,0.933,0.906,2.021,1.373,3.186c0.465,1.166,0.878,2.409,1.255,3.651c0.191,0.622,0.506,1.243,0.83,1.855
			c0.319,0.611,0.595,1.214,0.623,1.797c0.04,0.582-0.15,1.146-0.419,1.68c-0.274,0.534-0.609,1.039-1.015,1.506
			c-0.39,0.466-0.837,0.894-1.31,1.271c-0.243,0.189-0.47,0.367-0.68,0.531c-0.246,0.163-0.472,0.314-0.676,0.45
			c-0.426,0.271-0.805,0.485-1.1,0.631s-0.452,0.224-0.452,0.224h-1.2c0,0-0.157-0.078-0.452-0.224s-0.674-0.359-1.1-0.631
			c-0.204-0.136-0.43-0.287-0.676-0.45c-0.21-0.164-0.438-0.342-0.68-0.531c-0.473-0.378-0.92-0.806-1.31-1.271
			c-0.406-0.467-0.741-0.972-1.015-1.506c-0.269-0.534-0.458-1.098-0.419-1.68c0.027-0.583,0.303-1.186,0.623-1.797
			c0.323-0.612,0.639-1.233,0.83-1.855c0.376-1.242,0.79-2.485,1.255-3.651c0.467-1.165,0.958-2.253,1.373-3.186
			c0.204-0.466,0.43-0.894,0.609-1.271c0.182-0.379,0.348-0.709,0.497-0.981c0.283-0.544,0.465-0.854,0.465-0.854H114.832z"/>
	</g>
	<g>
		<path d="M137.463,199.704c0,0,0.182,0.311,0.465,0.854c0.149,0.272,0.315,0.603,0.497,0.981c0.179,0.378,0.406,0.806,0.609,1.271
			c0.415,0.933,0.906,2.021,1.373,3.186c0.465,1.166,0.878,2.409,1.255,3.651c0.191,0.622,0.506,1.243,0.83,1.855
			c0.319,0.611,0.595,1.214,0.623,1.797c0.04,0.582-0.15,1.146-0.419,1.68c-0.274,0.534-0.609,1.039-1.015,1.506
			c-0.39,0.466-0.837,0.894-1.31,1.271c-0.243,0.189-0.47,0.367-0.68,0.531c-0.246,0.163-0.472,0.314-0.676,0.45
			c-0.426,0.271-0.805,0.485-1.1,0.631s-0.452,0.224-0.452,0.224h-1.2c0,0-0.157-0.078-0.452-0.224s-0.674-0.359-1.1-0.631
			c-0.204-0.136-0.43-0.287-0.676-0.45c-0.21-0.164-0.438-0.342-0.68-0.531c-0.473-0.378-0.92-0.806-1.31-1.271
			c-0.406-0.467-0.741-0.972-1.015-1.506c-0.269-0.534-0.458-1.098-0.419-1.68c0.027-0.583,0.303-1.186,0.623-1.797
			c0.323-0.612,0.639-1.233,0.83-1.855c0.376-1.242,0.79-2.485,1.255-3.651c0.467-1.165,0.958-2.253,1.373-3.186
			c0.204-0.466,0.43-0.894,0.609-1.271c0.182-0.379,0.348-0.709,0.497-0.981c0.283-0.544,0.465-0.854,0.465-0.854H137.463z"/>
	</g>
	<g>
		<path d="M160.094,199.704c0,0,0.182,0.311,0.465,0.854c0.149,0.272,0.315,0.603,0.497,0.981c0.18,0.378,0.406,0.806,0.609,1.271
			c0.415,0.933,0.906,2.021,1.373,3.186c0.465,1.166,0.878,2.409,1.255,3.651c0.191,0.622,0.506,1.243,0.83,1.855
			c0.319,0.611,0.595,1.214,0.623,1.797c0.04,0.582-0.15,1.146-0.419,1.68c-0.274,0.534-0.609,1.039-1.015,1.506
			c-0.39,0.466-0.837,0.894-1.31,1.271c-0.243,0.189-0.47,0.367-0.68,0.531c-0.246,0.163-0.472,0.314-0.676,0.45
			c-0.426,0.271-0.805,0.485-1.1,0.631s-0.452,0.224-0.452,0.224h-1.2c0,0-0.157-0.078-0.452-0.224s-0.674-0.359-1.1-0.631
			c-0.204-0.136-0.43-0.287-0.676-0.45c-0.21-0.164-0.438-0.342-0.68-0.531c-0.473-0.378-0.92-0.806-1.31-1.271
			c-0.406-0.467-0.741-0.972-1.015-1.506c-0.269-0.534-0.459-1.098-0.419-1.68c0.027-0.583,0.303-1.186,0.623-1.797
			c0.323-0.612,0.639-1.233,0.83-1.855c0.376-1.242,0.79-2.485,1.255-3.651c0.467-1.165,0.958-2.253,1.373-3.186
			c0.204-0.466,0.43-0.894,0.609-1.271c0.182-0.379,0.348-0.709,0.497-0.981c0.283-0.544,0.465-0.854,0.465-0.854H160.094z"/>
	</g>
	<g>
		<path d="M92.201,169.759c0,0,0.182,0.311,0.465,0.854c0.149,0.272,0.315,0.603,0.497,0.981c0.18,0.378,0.406,0.806,0.609,1.271
			c0.415,0.933,0.906,2.021,1.373,3.186c0.465,1.166,0.878,2.409,1.255,3.651c0.191,0.622,0.506,1.243,0.83,1.855
			c0.319,0.611,0.595,1.214,0.623,1.797c0.04,0.582-0.15,1.146-0.419,1.68c-0.274,0.534-0.609,1.039-1.015,1.506
			c-0.39,0.466-0.837,0.894-1.31,1.271c-0.243,0.189-0.47,0.367-0.68,0.531c-0.246,0.163-0.472,0.314-0.676,0.45
			c-0.426,0.271-0.805,0.485-1.1,0.631s-0.452,0.224-0.452,0.224H91c0,0-0.157-0.078-0.452-0.224s-0.674-0.359-1.1-0.631
			c-0.204-0.136-0.43-0.287-0.676-0.45c-0.21-0.164-0.438-0.342-0.68-0.531c-0.473-0.378-0.92-0.806-1.31-1.271
			c-0.406-0.467-0.741-0.972-1.015-1.506c-0.269-0.534-0.458-1.098-0.419-1.68c0.027-0.583,0.303-1.186,0.623-1.797
			c0.323-0.612,0.639-1.233,0.83-1.855c0.376-1.242,0.79-2.485,1.255-3.651c0.467-1.165,0.958-2.253,1.373-3.186
			c0.204-0.466,0.43-0.894,0.609-1.271c0.182-0.379,0.348-0.709,0.497-0.981c0.283-0.544,0.465-0.854,0.465-0.854H92.201z"/>
	</g>
	<g>
		<path d="M114.832,169.759c0,0,0.182,0.311,0.465,0.854c0.149,0.272,0.315,0.603,0.497,0.981c0.179,0.378,0.406,0.806,0.609,1.271
			c0.415,0.933,0.906,2.021,1.373,3.186c0.465,1.166,0.878,2.409,1.255,3.651c0.191,0.622,0.506,1.243,0.83,1.855
			c0.319,0.611,0.595,1.214,0.623,1.797c0.04,0.582-0.15,1.146-0.419,1.68c-0.274,0.534-0.609,1.039-1.015,1.506
			c-0.39,0.466-0.837,0.894-1.31,1.271c-0.243,0.189-0.47,0.367-0.68,0.531c-0.246,0.163-0.472,0.314-0.676,0.45
			c-0.426,0.271-0.805,0.485-1.1,0.631s-0.452,0.224-0.452,0.224h-1.2c0,0-0.157-0.078-0.452-0.224s-0.674-0.359-1.1-0.631
			c-0.204-0.136-0.43-0.287-0.676-0.45c-0.21-0.164-0.438-0.342-0.68-0.531c-0.473-0.378-0.92-0.806-1.31-1.271
			c-0.406-0.467-0.741-0.972-1.015-1.506c-0.269-0.534-0.458-1.098-0.419-1.68c0.027-0.583,0.303-1.186,0.623-1.797
			c0.323-0.612,0.639-1.233,0.83-1.855c0.376-1.242,0.79-2.485,1.255-3.651c0.467-1.165,0.958-2.253,1.373-3.186
			c0.204-0.466,0.43-0.894,0.609-1.271c0.182-0.379,0.348-0.709,0.497-0.981c0.283-0.544,0.465-0.854,0.465-0.854H114.832z"/>
	</g>
	<g>
		<path d="M137.463,169.759c0,0,0.182,0.311,0.465,0.854c0.149,0.272,0.315,0.603,0.497,0.981c0.18,0.378,0.406,0.806,0.609,1.271
			c0.415,0.933,0.906,2.021,1.373,3.186c0.465,1.166,0.878,2.409,1.255,3.651c0.191,0.622,0.506,1.243,0.83,1.855
			c0.319,0.611,0.595,1.214,0.623,1.797c0.04,0.582-0.15,1.146-0.419,1.68c-0.274,0.534-0.609,1.039-1.015,1.506
			c-0.39,0.466-0.837,0.894-1.31,1.271c-0.243,0.189-0.47,0.367-0.68,0.531c-0.246,0.163-0.472,0.314-0.676,0.45
			c-0.426,0.271-0.805,0.485-1.1,0.631s-0.452,0.224-0.452,0.224h-1.2c0,0-0.157-0.078-0.452-0.224s-0.674-0.359-1.1-0.631
			c-0.204-0.136-0.43-0.287-0.676-0.45c-0.21-0.164-0.438-0.342-0.68-0.531c-0.473-0.378-0.92-0.806-1.31-1.271
			c-0.406-0.467-0.741-0.972-1.015-1.506c-0.269-0.534-0.459-1.098-0.419-1.68c0.027-0.583,0.303-1.186,0.623-1.797
			c0.323-0.612,0.639-1.233,0.83-1.855c0.376-1.242,0.79-2.485,1.255-3.651c0.467-1.165,0.958-2.253,1.373-3.186
			c0.204-0.466,0.43-0.894,0.609-1.271c0.182-0.379,0.348-0.709,0.497-0.981c0.283-0.544,0.465-0.854,0.465-0.854H137.463z"/>
	</g>
	<g>
		<path d="M114.832,137.565c0,0,0.182,0.311,0.465,0.854c0.149,0.272,0.315,0.603,0.497,0.981c0.179,0.378,0.406,0.806,0.609,1.271
			c0.415,0.933,0.906,2.021,1.373,3.186c0.465,1.166,0.878,2.409,1.255,3.651c0.191,0.622,0.506,1.243,0.83,1.855
			c0.319,0.611,0.595,1.214,0.623,1.797c0.04,0.582-0.15,1.146-0.419,1.68c-0.274,0.534-0.609,1.039-1.015,1.506
			c-0.39,0.466-0.837,0.894-1.31,1.271c-0.243,0.189-0.47,0.367-0.68,0.531c-0.246,0.163-0.472,0.314-0.676,0.45
			c-0.426,0.271-0.805,0.485-1.1,0.631s-0.452,0.224-0.452,0.224h-1.2c0,0-0.157-0.078-0.452-0.224s-0.674-0.359-1.1-0.631
			c-0.204-0.136-0.43-0.287-0.676-0.45c-0.21-0.164-0.438-0.342-0.68-0.531c-0.473-0.378-0.92-0.806-1.31-1.271
			c-0.406-0.467-0.741-0.972-1.015-1.506c-0.269-0.534-0.458-1.098-0.419-1.68c0.027-0.583,0.303-1.186,0.623-1.797
			c0.323-0.612,0.639-1.233,0.83-1.855c0.376-1.242,0.79-2.485,1.255-3.651c0.467-1.165,0.958-2.253,1.373-3.186
			c0.204-0.466,0.43-0.894,0.609-1.271c0.182-0.379,0.348-0.709,0.497-0.981c0.283-0.544,0.465-0.854,0.465-0.854H114.832z"/>
	</g>
	<line stroke="#000000" stroke-width="12" stroke-miterlimit="10" x1="68.969" y1="247.64" x2="93.73" y2="311.701"/>
	<line stroke="#000000" stroke-width="12" stroke-miterlimit="10" x1="139.364" y1="247.64" x2="164.126" y2="311.701"/>
	<line stroke="#000000" stroke-width="12" stroke-miterlimit="10" x1="206.886" y1="247.64" x2="231.648" y2="311.701"/>
</g>
<g>
	<g>
		<rect x="673.445" y="224.987" stroke="#000000" stroke-width="12" stroke-miterlimit="10" width="45.221" height="91.992"/>
	</g>
	<g>
		<rect x="690.403" y="219.899" stroke="#000000" stroke-width="12" stroke-miterlimit="10" width="11.305" height="24.975"/>
	</g>
	<rect x="647.535" y="289.761" stroke="#000000" stroke-width="6" stroke-miterlimit="10" width="29.267" height="10.412"/>
	<polyline fill="none" stroke="#000000" stroke-width="12" stroke-miterlimit="10" points="696.056,294.967 696.056,446.268 
		717.666,446.268 717.666,345.798 736.826,345.798 736.826,446.268 758.518,446.268 758.518,346.329 778.271,346.329 
		778.271,446.268 798.555,446.268 798.555,340.094 	"/>
	<g>
		<path d="M695.056,383.304c0,0-0.304-0.386-0.775-1.061c-0.249-0.338-0.526-0.748-0.828-1.218c-0.3-0.471-0.677-1.001-1.016-1.58
			c-0.346-0.578-0.72-1.205-1.115-1.868c-0.405-0.663-0.765-1.362-1.174-2.086c-0.369-0.724-0.77-1.471-1.103-2.23
			c-0.364-0.76-0.658-1.531-0.989-2.303c-0.317-0.771-0.844-1.543-1.382-2.303c-0.525-0.76-1.004-1.507-1.038-2.23
			c-0.063-0.724,0.245-1.423,0.698-2.086c0.211-0.331,0.511-0.654,0.758-0.966c0.317-0.312,0.577-0.613,0.935-0.902
			c0.649-0.579,1.396-1.109,2.183-1.58c0.405-0.234,0.783-0.455,1.134-0.658c0.41-0.203,0.787-0.391,1.127-0.56
			c0.323-0.168,0.704-0.319,1.007-0.45s0.565-0.242,0.826-0.333c0.491-0.181,0.753-0.277,0.753-0.277h2c0,0,0.262,0.097,0.753,0.277
			c0.261,0.091,0.523,0.202,0.826,0.333s0.684,0.282,1.007,0.45c0.34,0.169,0.717,0.356,1.127,0.56
			c0.351,0.203,0.729,0.424,1.134,0.658c0.787,0.471,1.533,1.001,2.183,1.58c0.357,0.289,0.617,0.591,0.935,0.902
			c0.247,0.312,0.547,0.635,0.758,0.966c0.453,0.663,0.762,1.362,0.698,2.086c-0.034,0.724-0.513,1.471-1.038,2.23
			c-0.538,0.76-1.064,1.531-1.382,2.303c-0.331,0.771-0.625,1.543-0.989,2.303c-0.333,0.76-0.733,1.507-1.103,2.23
			c-0.409,0.724-0.769,1.423-1.174,2.086c-0.396,0.663-0.77,1.29-1.115,1.868c-0.339,0.579-0.716,1.109-1.016,1.58
			c-0.302,0.47-0.579,0.88-0.828,1.218c-0.472,0.675-0.775,1.061-0.775,1.061H695.056z"/>
	</g>
	<g>
		<path d="M695.056,432.688c0,0-0.304-0.387-0.775-1.061c-0.249-0.338-0.526-0.748-0.828-1.219c-0.3-0.471-0.677-1-1.016-1.58
			c-0.346-0.578-0.72-1.205-1.115-1.867c-0.405-0.664-0.765-1.363-1.174-2.086c-0.369-0.725-0.77-1.471-1.103-2.23
			c-0.364-0.76-0.658-1.531-0.989-2.303c-0.317-0.771-0.844-1.543-1.382-2.303c-0.525-0.76-1.004-1.508-1.038-2.23
			c-0.063-0.725,0.245-1.424,0.698-2.086c0.211-0.332,0.511-0.654,0.758-0.967c0.317-0.311,0.577-0.613,0.935-0.902
			c0.649-0.578,1.396-1.109,2.183-1.58c0.405-0.234,0.783-0.455,1.134-0.658c0.41-0.203,0.787-0.391,1.127-0.559
			c0.323-0.168,0.704-0.32,1.007-0.451s0.565-0.242,0.826-0.332c0.491-0.182,0.753-0.277,0.753-0.277h2c0,0,0.262,0.096,0.753,0.277
			c0.261,0.09,0.523,0.201,0.826,0.332s0.684,0.283,1.007,0.451c0.34,0.168,0.717,0.355,1.127,0.559
			c0.351,0.203,0.729,0.424,1.134,0.658c0.787,0.471,1.533,1.002,2.183,1.58c0.357,0.289,0.617,0.592,0.935,0.902
			c0.247,0.312,0.547,0.635,0.758,0.967c0.453,0.662,0.762,1.361,0.698,2.086c-0.034,0.723-0.513,1.471-1.038,2.23
			c-0.538,0.76-1.064,1.531-1.382,2.303c-0.331,0.771-0.625,1.543-0.989,2.303c-0.333,0.76-0.733,1.506-1.103,2.23
			c-0.409,0.723-0.769,1.422-1.174,2.086c-0.396,0.662-0.77,1.289-1.115,1.867c-0.339,0.58-0.716,1.109-1.016,1.58
			c-0.302,0.471-0.579,0.881-0.828,1.219c-0.472,0.674-0.775,1.061-0.775,1.061H695.056z"/>
	</g>
	<g>
		<path d="M777.036,383.304c0,0-0.304-0.386-0.775-1.061c-0.249-0.338-0.526-0.748-0.828-1.218c-0.3-0.471-0.677-1.001-1.016-1.58
			c-0.346-0.578-0.72-1.205-1.115-1.868c-0.405-0.663-0.765-1.362-1.174-2.086c-0.369-0.724-0.77-1.471-1.103-2.23
			c-0.364-0.76-0.658-1.531-0.989-2.303c-0.317-0.771-0.844-1.543-1.382-2.303c-0.525-0.76-1.004-1.507-1.038-2.23
			c-0.063-0.724,0.245-1.423,0.698-2.086c0.211-0.331,0.511-0.654,0.758-0.966c0.317-0.312,0.577-0.613,0.935-0.902
			c0.649-0.579,1.396-1.109,2.183-1.58c0.405-0.234,0.783-0.455,1.134-0.658c0.41-0.203,0.787-0.391,1.127-0.56
			c0.323-0.168,0.704-0.319,1.007-0.45s0.565-0.242,0.826-0.333c0.491-0.181,0.753-0.277,0.753-0.277h2c0,0,0.262,0.097,0.753,0.277
			c0.261,0.091,0.523,0.202,0.826,0.333s0.684,0.282,1.007,0.45c0.34,0.169,0.717,0.356,1.127,0.56
			c0.351,0.203,0.729,0.424,1.134,0.658c0.787,0.471,1.533,1.001,2.183,1.58c0.357,0.289,0.617,0.591,0.935,0.902
			c0.247,0.312,0.547,0.635,0.758,0.966c0.453,0.663,0.762,1.362,0.698,2.086c-0.034,0.724-0.513,1.471-1.038,2.23
			c-0.538,0.76-1.064,1.531-1.382,2.303c-0.331,0.771-0.625,1.543-0.989,2.303c-0.333,0.76-0.733,1.507-1.103,2.23
			c-0.409,0.724-0.769,1.423-1.174,2.086c-0.396,0.663-0.77,1.29-1.115,1.868c-0.339,0.579-0.716,1.109-1.016,1.58
			c-0.302,0.47-0.579,0.88-0.828,1.218c-0.472,0.675-0.775,1.061-0.775,1.061H777.036z"/>
	</g>
	<g>
		<path d="M777.036,432.688c0,0-0.304-0.387-0.775-1.061c-0.249-0.338-0.526-0.748-0.828-1.219c-0.3-0.471-0.677-1-1.016-1.58
			c-0.346-0.578-0.72-1.205-1.115-1.867c-0.405-0.664-0.765-1.363-1.174-2.086c-0.369-0.725-0.77-1.471-1.103-2.23
			c-0.364-0.76-0.658-1.531-0.989-2.303c-0.317-0.771-0.844-1.543-1.382-2.303c-0.525-0.76-1.004-1.508-1.038-2.23
			c-0.063-0.725,0.245-1.424,0.698-2.086c0.211-0.332,0.511-0.654,0.758-0.967c0.317-0.311,0.577-0.613,0.935-0.902
			c0.649-0.578,1.396-1.109,2.183-1.58c0.405-0.234,0.783-0.455,1.134-0.658c0.41-0.203,0.787-0.391,1.127-0.559
			c0.323-0.168,0.704-0.32,1.007-0.451s0.565-0.242,0.826-0.332c0.491-0.182,0.753-0.277,0.753-0.277h2c0,0,0.262,0.096,0.753,0.277
			c0.261,0.09,0.523,0.201,0.826,0.332s0.684,0.283,1.007,0.451c0.34,0.168,0.717,0.355,1.127,0.559
			c0.351,0.203,0.729,0.424,1.134,0.658c0.787,0.471,1.533,1.002,2.183,1.58c0.357,0.289,0.617,0.592,0.935,0.902
			c0.247,0.312,0.547,0.635,0.758,0.967c0.453,0.662,0.762,1.361,0.698,2.086c-0.034,0.723-0.513,1.471-1.038,2.23
			c-0.538,0.76-1.064,1.531-1.382,2.303c-0.331,0.771-0.625,1.543-0.989,2.303c-0.333,0.76-0.733,1.506-1.103,2.23
			c-0.409,0.723-0.769,1.422-1.174,2.086c-0.396,0.662-0.77,1.289-1.115,1.867c-0.339,0.58-0.716,1.109-1.016,1.58
			c-0.302,0.471-0.579,0.881-0.828,1.219c-0.472,0.674-0.775,1.061-0.775,1.061H777.036z"/>
	</g>
	<g>
		<path d="M736.908,383.304c0,0-0.304-0.386-0.775-1.061c-0.249-0.338-0.526-0.748-0.828-1.218c-0.3-0.471-0.677-1.001-1.016-1.58
			c-0.346-0.578-0.72-1.205-1.115-1.868c-0.405-0.663-0.765-1.362-1.174-2.086c-0.369-0.724-0.77-1.471-1.103-2.23
			c-0.364-0.76-0.658-1.531-0.989-2.303c-0.317-0.771-0.844-1.543-1.382-2.303c-0.525-0.76-1.004-1.507-1.038-2.23
			c-0.063-0.724,0.245-1.423,0.698-2.086c0.211-0.331,0.511-0.654,0.758-0.966c0.317-0.312,0.577-0.613,0.935-0.902
			c0.649-0.579,1.396-1.109,2.183-1.58c0.405-0.234,0.783-0.455,1.134-0.658c0.41-0.203,0.787-0.391,1.127-0.56
			c0.323-0.168,0.704-0.319,1.007-0.45s0.565-0.242,0.826-0.333c0.491-0.181,0.753-0.277,0.753-0.277h2c0,0,0.262,0.097,0.753,0.277
			c0.261,0.091,0.523,0.202,0.826,0.333s0.684,0.282,1.007,0.45c0.34,0.169,0.717,0.356,1.127,0.56
			c0.351,0.203,0.729,0.424,1.134,0.658c0.787,0.471,1.533,1.001,2.183,1.58c0.357,0.289,0.617,0.591,0.935,0.902
			c0.247,0.312,0.547,0.635,0.758,0.966c0.453,0.663,0.762,1.362,0.698,2.086c-0.034,0.724-0.513,1.471-1.038,2.23
			c-0.538,0.76-1.064,1.531-1.382,2.303c-0.331,0.771-0.625,1.543-0.989,2.303c-0.333,0.76-0.733,1.507-1.103,2.23
			c-0.409,0.724-0.769,1.423-1.174,2.086c-0.396,0.663-0.77,1.29-1.115,1.868c-0.339,0.579-0.716,1.109-1.016,1.58
			c-0.302,0.47-0.579,0.88-0.828,1.218c-0.472,0.675-0.775,1.061-0.775,1.061H736.908z"/>
	</g>
	<g>
		<path d="M736.908,432.688c0,0-0.304-0.387-0.775-1.061c-0.249-0.338-0.526-0.748-0.828-1.219c-0.3-0.471-0.677-1-1.016-1.58
			c-0.346-0.578-0.72-1.205-1.115-1.867c-0.405-0.664-0.765-1.363-1.174-2.086c-0.369-0.725-0.77-1.471-1.103-2.23
			c-0.364-0.76-0.658-1.531-0.989-2.303c-0.317-0.771-0.844-1.543-1.382-2.303c-0.525-0.76-1.004-1.508-1.038-2.23
			c-0.063-0.725,0.245-1.424,0.698-2.086c0.211-0.332,0.511-0.654,0.758-0.967c0.317-0.311,0.577-0.613,0.935-0.902
			c0.649-0.578,1.396-1.109,2.183-1.58c0.405-0.234,0.783-0.455,1.134-0.658c0.41-0.203,0.787-0.391,1.127-0.559
			c0.323-0.168,0.704-0.32,1.007-0.451s0.565-0.242,0.826-0.332c0.491-0.182,0.753-0.277,0.753-0.277h2c0,0,0.262,0.096,0.753,0.277
			c0.261,0.09,0.523,0.201,0.826,0.332s0.684,0.283,1.007,0.451c0.34,0.168,0.717,0.355,1.127,0.559
			c0.351,0.203,0.729,0.424,1.134,0.658c0.787,0.471,1.533,1.002,2.183,1.58c0.357,0.289,0.617,0.592,0.935,0.902
			c0.247,0.312,0.547,0.635,0.758,0.967c0.453,0.662,0.762,1.361,0.698,2.086c-0.034,0.723-0.513,1.471-1.038,2.23
			c-0.538,0.76-1.064,1.531-1.382,2.303c-0.331,0.771-0.625,1.543-0.989,2.303c-0.333,0.76-0.733,1.506-1.103,2.23
			c-0.409,0.723-0.769,1.422-1.174,2.086c-0.396,0.662-0.77,1.289-1.115,1.867c-0.339,0.58-0.716,1.109-1.016,1.58
			c-0.302,0.471-0.579,0.881-0.828,1.219c-0.472,0.674-0.775,1.061-0.775,1.061H736.908z"/>
	</g>
	<g>
		<path d="M718.707,409.035c0,0-0.304-0.385-0.775-1.061c-0.249-0.338-0.526-0.748-0.828-1.217c-0.3-0.471-0.677-1.002-1.016-1.58
			c-0.346-0.578-0.72-1.205-1.115-1.869c-0.405-0.662-0.765-1.361-1.174-2.086c-0.369-0.723-0.77-1.471-1.103-2.23
			c-0.364-0.76-0.658-1.531-0.989-2.302c-0.317-0.771-0.844-1.543-1.382-2.303c-0.525-0.76-1.004-1.507-1.038-2.23
			c-0.063-0.724,0.245-1.423,0.698-2.086c0.211-0.331,0.511-0.654,0.758-0.966c0.317-0.312,0.577-0.613,0.935-0.902
			c0.649-0.579,1.396-1.109,2.183-1.58c0.405-0.234,0.783-0.455,1.134-0.658c0.41-0.203,0.787-0.391,1.127-0.56
			c0.323-0.168,0.704-0.319,1.007-0.45s0.565-0.242,0.826-0.333c0.491-0.181,0.753-0.277,0.753-0.277h2c0,0,0.262,0.097,0.753,0.277
			c0.261,0.091,0.523,0.202,0.826,0.333s0.684,0.282,1.007,0.45c0.34,0.169,0.717,0.356,1.127,0.56
			c0.351,0.203,0.729,0.424,1.134,0.658c0.787,0.471,1.533,1.001,2.183,1.58c0.357,0.289,0.617,0.591,0.935,0.902
			c0.247,0.312,0.547,0.635,0.758,0.966c0.453,0.663,0.762,1.362,0.698,2.086c-0.034,0.724-0.513,1.471-1.038,2.23
			c-0.538,0.76-1.064,1.531-1.382,2.303c-0.331,0.771-0.625,1.542-0.989,2.302c-0.333,0.76-0.733,1.508-1.103,2.23
			c-0.409,0.725-0.769,1.424-1.174,2.086c-0.396,0.664-0.77,1.291-1.115,1.869c-0.339,0.578-0.716,1.109-1.016,1.58
			c-0.302,0.469-0.579,0.879-0.828,1.217c-0.472,0.676-0.775,1.061-0.775,1.061H718.707z"/>
	</g>
	<g>
		<path d="M758.253,409.035c0,0-0.304-0.385-0.775-1.061c-0.249-0.338-0.526-0.748-0.828-1.217c-0.3-0.471-0.677-1.002-1.016-1.58
			c-0.346-0.578-0.72-1.205-1.115-1.869c-0.405-0.662-0.765-1.361-1.174-2.086c-0.369-0.723-0.77-1.471-1.103-2.23
			c-0.364-0.76-0.658-1.531-0.989-2.302c-0.317-0.771-0.844-1.543-1.382-2.303c-0.525-0.76-1.004-1.507-1.038-2.23
			c-0.063-0.724,0.245-1.423,0.698-2.086c0.211-0.331,0.511-0.654,0.758-0.966c0.317-0.312,0.577-0.613,0.935-0.902
			c0.649-0.579,1.396-1.109,2.183-1.58c0.405-0.234,0.783-0.455,1.134-0.658c0.41-0.203,0.787-0.391,1.127-0.56
			c0.323-0.168,0.704-0.319,1.007-0.45s0.565-0.242,0.826-0.333c0.491-0.181,0.753-0.277,0.753-0.277h2c0,0,0.262,0.097,0.753,0.277
			c0.261,0.091,0.523,0.202,0.826,0.333s0.684,0.282,1.007,0.45c0.34,0.169,0.717,0.356,1.127,0.56
			c0.351,0.203,0.729,0.424,1.134,0.658c0.787,0.471,1.533,1.001,2.183,1.58c0.357,0.289,0.617,0.591,0.935,0.902
			c0.247,0.312,0.547,0.635,0.758,0.966c0.453,0.663,0.762,1.362,0.698,2.086c-0.034,0.724-0.513,1.471-1.038,2.23
			c-0.538,0.76-1.064,1.531-1.382,2.303c-0.331,0.771-0.625,1.542-0.989,2.302c-0.333,0.76-0.733,1.508-1.103,2.23
			c-0.409,0.725-0.769,1.424-1.174,2.086c-0.396,0.664-0.77,1.291-1.115,1.869c-0.339,0.578-0.716,1.109-1.016,1.58
			c-0.302,0.469-0.579,0.879-0.828,1.217c-0.472,0.676-0.775,1.061-0.775,1.061H758.253z"/>
	</g>
	<g>
		<path d="M797.555,409.035c0,0-0.304-0.385-0.775-1.061c-0.249-0.338-0.526-0.748-0.828-1.217c-0.3-0.471-0.677-1.002-1.016-1.58
			c-0.346-0.578-0.72-1.205-1.115-1.869c-0.405-0.662-0.765-1.361-1.174-2.086c-0.369-0.723-0.77-1.471-1.103-2.23
			c-0.364-0.76-0.658-1.531-0.989-2.302c-0.317-0.771-0.844-1.543-1.382-2.303c-0.525-0.76-1.004-1.507-1.038-2.23
			c-0.063-0.724,0.245-1.423,0.698-2.086c0.211-0.331,0.511-0.654,0.758-0.966c0.317-0.312,0.577-0.613,0.935-0.902
			c0.649-0.579,1.396-1.109,2.183-1.58c0.405-0.234,0.783-0.455,1.134-0.658c0.41-0.203,0.787-0.391,1.127-0.56
			c0.323-0.168,0.704-0.319,1.007-0.45s0.565-0.242,0.826-0.333c0.491-0.181,0.753-0.277,0.753-0.277h2c0,0,0.262,0.097,0.753,0.277
			c0.261,0.091,0.523,0.202,0.826,0.333s0.684,0.282,1.007,0.45c0.34,0.169,0.717,0.356,1.127,0.56
			c0.351,0.203,0.729,0.424,1.134,0.658c0.787,0.471,1.533,1.001,2.183,1.58c0.357,0.289,0.617,0.591,0.935,0.902
			c0.247,0.312,0.547,0.635,0.758,0.966c0.453,0.663,0.762,1.362,0.698,2.086c-0.034,0.724-0.513,1.471-1.038,2.23
			c-0.538,0.76-1.064,1.531-1.382,2.303c-0.331,0.771-0.625,1.542-0.989,2.302c-0.333,0.76-0.733,1.508-1.103,2.23
			c-0.409,0.725-0.769,1.424-1.174,2.086c-0.396,0.664-0.77,1.291-1.115,1.869c-0.339,0.578-0.716,1.109-1.016,1.58
			c-0.302,0.469-0.579,0.879-0.828,1.217c-0.472,0.676-0.775,1.061-0.775,1.061H797.555z"/>
	</g>
</g>
<g>
	
		<rect x="230.4" y="142.145" fill="none" stroke="#000000" stroke-width="12" stroke-miterlimit="10" width="417.482" height="175.029"/>
	<rect x="230.4" y="62.062" stroke="#000000" stroke-width="12" stroke-miterlimit="10" width="417.482" height="117.641"/>
	<polygon fill="#FFFFFF" stroke="#000000" stroke-width="12" stroke-miterlimit="10" points="439.141,26.934 341.598,120.883 
		341.598,317.173 543.159,317.173 543.159,120.883 	"/>
	<rect x="417.465" y="247.64" stroke="#000000" stroke-width="12" stroke-miterlimit="10" width="49.828" height="69.533"/>
	<rect x="373.885" y="131.657" stroke="#000000" stroke-width="12" stroke-miterlimit="10" width="13.677" height="28.157"/>
	<rect x="373.885" y="199.593" stroke="#000000" stroke-width="12" stroke-miterlimit="10" width="13.677" height="28.156"/>
	<rect x="278.332" y="213.98" stroke="#000000" stroke-width="12" stroke-miterlimit="10" width="13.677" height="19.725"/>
	<rect x="586.828" y="213.98" stroke="#000000" stroke-width="12" stroke-miterlimit="10" width="13.678" height="19.725"/>
	<rect x="278.332" y="271.439" stroke="#000000" stroke-width="12" stroke-miterlimit="10" width="13.677" height="19.725"/>
	<rect x="435.54" y="131.657" stroke="#000000" stroke-width="12" stroke-miterlimit="10" width="13.677" height="28.157"/>
	<rect x="497.195" y="131.657" stroke="#000000" stroke-width="12" stroke-miterlimit="10" width="13.676" height="28.157"/>
</g>
<g>
	
		<rect x="257.174" y="28.055" fill="#FFFFFF" stroke="#000000" stroke-width="12" stroke-miterlimit="10" width="106.933" height="42.008"/>
	<line fill="none" stroke="#000000" stroke-width="12" stroke-miterlimit="10" x1="257.174" y1="49.059" x2="364.107" y2="49.059"/>
	<line fill="none" stroke="#000000" stroke-width="12" stroke-miterlimit="10" x1="310.641" y1="28.055" x2="310.641" y2="70.062"/>
	<line fill="none" stroke="#000000" stroke-width="12" stroke-miterlimit="10" x1="336.07" y1="28.055" x2="336.07" y2="70.062"/>
	<line fill="none" stroke="#000000" stroke-width="12" stroke-miterlimit="10" x1="285.475" y1="28.055" x2="285.475" y2="70.062"/>
	
		<rect x="514.176" y="28.055" fill="#FFFFFF" stroke="#000000" stroke-width="12" stroke-miterlimit="10" width="106.934" height="42.008"/>
	<line fill="none" stroke="#000000" stroke-width="12" stroke-miterlimit="10" x1="514.176" y1="49.059" x2="621.109" y2="49.059"/>
	<line fill="none" stroke="#000000" stroke-width="12" stroke-miterlimit="10" x1="567.643" y1="28.055" x2="567.643" y2="70.062"/>
	<line fill="none" stroke="#000000" stroke-width="12" stroke-miterlimit="10" x1="593.072" y1="28.055" x2="593.072" y2="70.062"/>
	<line fill="none" stroke="#000000" stroke-width="12" stroke-miterlimit="10" x1="542.477" y1="28.055" x2="542.477" y2="70.062"/>
</g>
</svg>
