<?xml version="1.0" encoding="utf-8"?>
<!-- Generator: Adobe Illustrator 16.0.0, SVG Export Plug-In . SVG Version: 6.00 Build 0)  -->
<!DOCTYPE svg PUBLIC "-//W3C//DTD SVG 1.1//EN" "http://www.w3.org/Graphics/SVG/1.1/DTD/svg11.dtd">
<svg version="1.1" xmlns="http://www.w3.org/2000/svg" xmlns:xlink="http://www.w3.org/1999/xlink" x="0px" y="0px"
	 width="818.828px" height="462.891px" viewBox="0 0 818.828 462.891" enable-background="new 0 0 818.828 462.891"
	 xml:space="preserve">
<g id="Layer_1">
	<g>
		<rect x="161.253" y="243.227" stroke="#000000" stroke-width="12" stroke-miterlimit="10" width="45.633" height="75.168"/>
		<rect x="93.73" y="243.227" stroke="#000000" stroke-width="12" stroke-miterlimit="10" width="45.634" height="75.168"/>
		<rect x="26.208" y="243.227" stroke="#000000" stroke-width="12" stroke-miterlimit="10" width="45.633" height="75.168"/>
		<g>
			<path d="M69.569,199.704c0,0,0.182,0.311,0.465,0.854c0.149,0.272,0.315,0.603,0.497,0.981c0.18,0.378,0.406,0.806,0.609,1.271
				c0.415,0.933,0.906,2.021,1.373,3.186c0.465,1.166,0.878,2.409,1.255,3.651c0.191,0.622,0.506,1.243,0.83,1.855
				c0.319,0.611,0.595,1.214,0.623,1.797c0.04,0.582-0.15,1.146-0.419,1.68c-0.274,0.534-0.609,1.039-1.015,1.506
				c-0.39,0.466-0.837,0.894-1.31,1.271c-0.243,0.189-0.47,0.367-0.68,0.531c-0.246,0.163-0.472,0.314-0.676,0.45
				c-0.426,0.271-0.805,0.485-1.1,0.631s-0.452,0.224-0.452,0.224h-1.2c0,0-0.157-0.078-0.452-0.224s-0.674-0.359-1.1-0.631
				c-0.204-0.136-0.43-0.287-0.676-0.45c-0.21-0.164-0.438-0.342-0.68-0.531c-0.473-0.378-0.92-0.806-1.31-1.271
				c-0.406-0.467-0.741-0.972-1.015-1.506c-0.269-0.534-0.458-1.098-0.419-1.68c0.027-0.583,0.303-1.186,0.623-1.797
				c0.323-0.612,0.639-1.233,0.83-1.855c0.376-1.242,0.79-2.485,1.255-3.651c0.467-1.165,0.958-2.253,1.373-3.186
				c0.204-0.466,0.43-0.894,0.609-1.271c0.182-0.379,0.348-0.709,0.497-0.981c0.283-0.544,0.465-0.854,0.465-0.854H69.569z"/>
		</g>
		<g>
			<path d="M92.2,199.704c0,0,0.182,0.311,0.465,0.854c0.149,0.272,0.315,0.603,0.497,0.981c0.179,0.378,0.406,0.806,0.609,1.271
				c0.415,0.933,0.906,2.021,1.373,3.186c0.465,1.166,0.878,2.409,1.255,3.651c0.191,0.622,0.506,1.243,0.83,1.855
				c0.319,0.611,0.595,1.214,0.623,1.797c0.04,0.582-0.15,1.146-0.419,1.68c-0.274,0.534-0.609,1.039-1.015,1.506
				c-0.39,0.466-0.837,0.894-1.31,1.271c-0.243,0.189-0.47,0.367-0.68,0.531c-0.246,0.163-0.472,0.314-0.676,0.45
				c-0.426,0.271-0.805,0.485-1.1,0.631s-0.452,0.224-0.452,0.224H91c0,0-0.157-0.078-0.452-0.224s-0.674-0.359-1.1-0.631
				c-0.204-0.136-0.43-0.287-0.676-0.45c-0.21-0.164-0.438-0.342-0.68-0.531c-0.473-0.378-0.92-0.806-1.31-1.271
				c-0.406-0.467-0.741-0.972-1.015-1.506c-0.269-0.534-0.458-1.098-0.419-1.68c0.027-0.583,0.303-1.186,0.623-1.797
				c0.323-0.612,0.639-1.233,0.83-1.855c0.376-1.242,0.79-2.485,1.255-3.651c0.467-1.165,0.958-2.253,1.373-3.186
				c0.204-0.466,0.43-0.894,0.609-1.271c0.182-0.379,0.348-0.709,0.497-0.981c0.283-0.544,0.465-0.854,0.465-0.854H92.2z"/>
		</g>
		<g>
			<path d="M114.832,199.704c0,0,0.182,0.311,0.465,0.854c0.149,0.272,0.315,0.603,0.497,0.981c0.18,0.378,0.406,0.806,0.609,1.271
				c0.415,0.933,0.906,2.021,1.373,3.186c0.465,1.166,0.878,2.409,1.255,3.651c0.191,0.622,0.506,1.243,0.83,1.855
				c0.319,0.611,0.595,1.214,0.623,1.797c0.04,0.582-0.15,1.146-0.419,1.68c-0.274,0.534-0.609,1.039-1.015,1.506
				c-0.39,0.466-0.837,0.894-1.31,1.271c-0.243,0.189-0.47,0.367-0.68,0.531c-0.246,0.163-0.472,0.314-0.676,0.45
				c-0.426,0.271-0.805,0.485-1.1,0.631c-0.295,0.146-0.452,0.224-0.452,0.224h-1.2c0,0-0.157-0.078-0.452-0.224
				c-0.295-0.146-0.674-0.359-1.1-0.631c-0.204-0.136-0.43-0.287-0.676-0.45c-0.21-0.164-0.438-0.342-0.68-0.531
				c-0.473-0.378-0.92-0.806-1.31-1.271c-0.406-0.467-0.741-0.972-1.015-1.506c-0.269-0.534-0.458-1.098-0.419-1.68
				c0.027-0.583,0.303-1.186,0.623-1.797c0.323-0.612,0.639-1.233,0.83-1.855c0.376-1.242,0.79-2.485,1.255-3.651
				c0.467-1.165,0.958-2.253,1.373-3.186c0.204-0.466,0.43-0.894,0.609-1.271c0.182-0.379,0.348-0.709,0.497-0.981
				c0.283-0.544,0.465-0.854,0.465-0.854H114.832z"/>
		</g>
		<g>
			<path d="M137.463,199.704c0,0,0.182,0.311,0.465,0.854c0.149,0.272,0.315,0.603,0.497,0.981c0.179,0.378,0.406,0.806,0.609,1.271
				c0.415,0.933,0.906,2.021,1.373,3.186c0.465,1.166,0.878,2.409,1.255,3.651c0.191,0.622,0.506,1.243,0.83,1.855
				c0.319,0.611,0.595,1.214,0.623,1.797c0.04,0.582-0.15,1.146-0.419,1.68c-0.274,0.534-0.609,1.039-1.015,1.506
				c-0.39,0.466-0.837,0.894-1.31,1.271c-0.243,0.189-0.47,0.367-0.68,0.531c-0.246,0.163-0.472,0.314-0.676,0.45
				c-0.426,0.271-0.805,0.485-1.1,0.631s-0.452,0.224-0.452,0.224h-1.2c0,0-0.157-0.078-0.452-0.224s-0.674-0.359-1.1-0.631
				c-0.204-0.136-0.43-0.287-0.676-0.45c-0.21-0.164-0.438-0.342-0.68-0.531c-0.473-0.378-0.92-0.806-1.31-1.271
				c-0.406-0.467-0.741-0.972-1.015-1.506c-0.269-0.534-0.458-1.098-0.419-1.68c0.027-0.583,0.303-1.186,0.623-1.797
				c0.323-0.612,0.639-1.233,0.83-1.855c0.376-1.242,0.79-2.485,1.255-3.651c0.467-1.165,0.958-2.253,1.373-3.186
				c0.204-0.466,0.43-0.894,0.609-1.271c0.182-0.379,0.348-0.709,0.497-0.981c0.283-0.544,0.465-0.854,0.465-0.854H137.463z"/>
		</g>
		<g>
			<path d="M160.094,199.704c0,0,0.182,0.311,0.465,0.854c0.149,0.272,0.315,0.603,0.497,0.981c0.18,0.378,0.406,0.806,0.609,1.271
				c0.415,0.933,0.906,2.021,1.373,3.186c0.465,1.166,0.878,2.409,1.255,3.651c0.191,0.622,0.506,1.243,0.83,1.855
				c0.319,0.611,0.595,1.214,0.623,1.797c0.04,0.582-0.15,1.146-0.419,1.68c-0.274,0.534-0.609,1.039-1.015,1.506
				c-0.39,0.466-0.837,0.894-1.31,1.271c-0.243,0.189-0.47,0.367-0.68,0.531c-0.246,0.163-0.472,0.314-0.676,0.45
				c-0.426,0.271-0.805,0.485-1.1,0.631s-0.452,0.224-0.452,0.224h-1.2c0,0-0.157-0.078-0.452-0.224s-0.674-0.359-1.1-0.631
				c-0.204-0.136-0.43-0.287-0.676-0.45c-0.21-0.164-0.438-0.342-0.68-0.531c-0.473-0.378-0.92-0.806-1.31-1.271
				c-0.406-0.467-0.741-0.972-1.015-1.506c-0.269-0.534-0.459-1.098-0.419-1.68c0.027-0.583,0.303-1.186,0.623-1.797
				c0.323-0.612,0.639-1.233,0.83-1.855c0.376-1.242,0.79-2.485,1.255-3.651c0.467-1.165,0.958-2.253,1.373-3.186
				c0.204-0.466,0.43-0.894,0.609-1.271c0.182-0.379,0.348-0.709,0.497-0.981c0.283-0.544,0.465-0.854,0.465-0.854H160.094z"/>
		</g>
		<g>
			<path d="M92.201,169.759c0,0,0.182,0.311,0.465,0.854c0.149,0.272,0.315,0.603,0.497,0.981c0.18,0.378,0.406,0.806,0.609,1.271
				c0.415,0.933,0.906,2.021,1.373,3.186c0.465,1.166,0.878,2.409,1.255,3.651c0.191,0.622,0.506,1.243,0.83,1.855
				c0.319,0.611,0.595,1.214,0.623,1.797c0.04,0.582-0.15,1.146-0.419,1.68c-0.274,0.534-0.609,1.039-1.015,1.506
				c-0.39,0.466-0.837,0.894-1.31,1.271c-0.243,0.189-0.47,0.367-0.68,0.531c-0.246,0.163-0.472,0.314-0.676,0.45
				c-0.426,0.271-0.805,0.485-1.1,0.631c-0.295,0.146-0.452,0.224-0.452,0.224H91c0,0-0.157-0.078-0.452-0.224
				s-0.674-0.359-1.1-0.631c-0.204-0.136-0.43-0.287-0.676-0.45c-0.21-0.164-0.438-0.342-0.68-0.531
				c-0.473-0.378-0.92-0.806-1.31-1.271c-0.406-0.467-0.741-0.972-1.015-1.506c-0.269-0.534-0.458-1.098-0.419-1.68
				c0.027-0.583,0.303-1.186,0.623-1.797c0.323-0.612,0.639-1.233,0.83-1.855c0.376-1.242,0.79-2.485,1.255-3.651
				c0.467-1.165,0.958-2.253,1.373-3.186c0.204-0.466,0.43-0.894,0.609-1.271c0.182-0.379,0.348-0.709,0.497-0.981
				c0.283-0.544,0.465-0.854,0.465-0.854H92.201z"/>
		</g>
		<g>
			<path d="M114.832,169.759c0,0,0.182,0.311,0.465,0.854c0.149,0.272,0.315,0.603,0.497,0.981c0.179,0.378,0.406,0.806,0.609,1.271
				c0.415,0.933,0.906,2.021,1.373,3.186c0.465,1.166,0.878,2.409,1.255,3.651c0.191,0.622,0.506,1.243,0.83,1.855
				c0.319,0.611,0.595,1.214,0.623,1.797c0.04,0.582-0.15,1.146-0.419,1.68c-0.274,0.534-0.609,1.039-1.015,1.506
				c-0.39,0.466-0.837,0.894-1.31,1.271c-0.243,0.189-0.47,0.367-0.68,0.531c-0.246,0.163-0.472,0.314-0.676,0.45
				c-0.426,0.271-0.805,0.485-1.1,0.631c-0.295,0.146-0.452,0.224-0.452,0.224h-1.2c0,0-0.157-0.078-0.452-0.224
				c-0.295-0.146-0.674-0.359-1.1-0.631c-0.204-0.136-0.43-0.287-0.676-0.45c-0.21-0.164-0.438-0.342-0.68-0.531
				c-0.473-0.378-0.92-0.806-1.31-1.271c-0.406-0.467-0.741-0.972-1.015-1.506c-0.269-0.534-0.458-1.098-0.419-1.68
				c0.027-0.583,0.303-1.186,0.623-1.797c0.323-0.612,0.639-1.233,0.83-1.855c0.376-1.242,0.79-2.485,1.255-3.651
				c0.467-1.165,0.958-2.253,1.373-3.186c0.204-0.466,0.43-0.894,0.609-1.271c0.182-0.379,0.348-0.709,0.497-0.981
				c0.283-0.544,0.465-0.854,0.465-0.854H114.832z"/>
		</g>
		<g>
			<path d="M137.463,169.759c0,0,0.182,0.311,0.465,0.854c0.149,0.272,0.315,0.603,0.497,0.981c0.18,0.378,0.406,0.806,0.609,1.271
				c0.415,0.933,0.906,2.021,1.373,3.186c0.465,1.166,0.878,2.409,1.255,3.651c0.191,0.622,0.506,1.243,0.83,1.855
				c0.319,0.611,0.595,1.214,0.623,1.797c0.04,0.582-0.15,1.146-0.419,1.68c-0.274,0.534-0.609,1.039-1.015,1.506
				c-0.39,0.466-0.837,0.894-1.31,1.271c-0.243,0.189-0.47,0.367-0.68,0.531c-0.246,0.163-0.472,0.314-0.676,0.45
				c-0.426,0.271-0.805,0.485-1.1,0.631s-0.452,0.224-0.452,0.224h-1.2c0,0-0.157-0.078-0.452-0.224s-0.674-0.359-1.1-0.631
				c-0.204-0.136-0.43-0.287-0.676-0.45c-0.21-0.164-0.438-0.342-0.68-0.531c-0.473-0.378-0.92-0.806-1.31-1.271
				c-0.406-0.467-0.741-0.972-1.015-1.506c-0.269-0.534-0.459-1.098-0.419-1.68c0.027-0.583,0.303-1.186,0.623-1.797
				c0.323-0.612,0.639-1.233,0.83-1.855c0.376-1.242,0.79-2.485,1.255-3.651c0.467-1.165,0.958-2.253,1.373-3.186
				c0.204-0.466,0.43-0.894,0.609-1.271c0.182-0.379,0.348-0.709,0.497-0.981c0.283-0.544,0.465-0.854,0.465-0.854H137.463z"/>
		</g>
		<g>
			<path d="M114.832,137.565c0,0,0.182,0.311,0.465,0.854c0.149,0.272,0.315,0.603,0.497,0.981c0.179,0.378,0.406,0.806,0.609,1.271
				c0.415,0.933,0.906,2.021,1.373,3.186c0.465,1.166,0.878,2.409,1.255,3.651c0.191,0.622,0.506,1.243,0.83,1.855
				c0.319,0.611,0.595,1.214,0.623,1.797c0.04,0.582-0.15,1.146-0.419,1.68c-0.274,0.534-0.609,1.039-1.015,1.506
				c-0.39,0.466-0.837,0.894-1.31,1.271c-0.243,0.189-0.47,0.367-0.68,0.531c-0.246,0.163-0.472,0.314-0.676,0.45
				c-0.426,0.271-0.805,0.485-1.1,0.631c-0.295,0.146-0.452,0.224-0.452,0.224h-1.2c0,0-0.157-0.078-0.452-0.224
				c-0.295-0.146-0.674-0.359-1.1-0.631c-0.204-0.136-0.43-0.287-0.676-0.45c-0.21-0.164-0.438-0.342-0.68-0.531
				c-0.473-0.378-0.92-0.806-1.31-1.271c-0.406-0.467-0.741-0.972-1.015-1.506c-0.269-0.534-0.458-1.098-0.419-1.68
				c0.027-0.583,0.303-1.186,0.623-1.797c0.323-0.612,0.639-1.233,0.83-1.855c0.376-1.242,0.79-2.485,1.255-3.651
				c0.467-1.165,0.958-2.253,1.373-3.186c0.204-0.466,0.43-0.894,0.609-1.271c0.182-0.379,0.348-0.709,0.497-0.981
				c0.283-0.544,0.465-0.854,0.465-0.854H114.832z"/>
		</g>
		<line fill="none" stroke="#000000" stroke-width="12" stroke-miterlimit="10" x1="68.969" y1="247.641" x2="93.73" y2="311.701"/>
		
			<line fill="none" stroke="#000000" stroke-width="12" stroke-miterlimit="10" x1="139.364" y1="247.641" x2="164.126" y2="311.701"/>
		
			<line fill="none" stroke="#000000" stroke-width="12" stroke-miterlimit="10" x1="206.886" y1="247.641" x2="231.648" y2="311.701"/>
	</g>
	<g>
		<g>
			<rect x="673.445" y="224.987" stroke="#000000" stroke-width="12" stroke-miterlimit="10" width="45.221" height="91.992"/>
		</g>
		<g>
			<rect x="690.404" y="219.899" stroke="#000000" stroke-width="12" stroke-miterlimit="10" width="11.305" height="24.975"/>
		</g>
		<rect x="647.535" y="289.761" stroke="#000000" stroke-width="6" stroke-miterlimit="10" width="29.268" height="10.412"/>
		<polyline fill="none" stroke="#000000" stroke-width="12" stroke-miterlimit="10" points="696.056,294.967 696.056,446.268 
			717.666,446.268 717.666,345.798 736.826,345.798 736.826,446.268 758.517,446.268 758.517,346.329 778.271,346.329 
			778.271,446.268 798.554,446.268 798.554,340.094 		"/>
		<g>
			<path d="M695.056,383.305c0,0-0.305-0.387-0.775-1.062c-0.248-0.339-0.525-0.748-0.828-1.218
				c-0.299-0.471-0.676-1.002-1.016-1.58c-0.346-0.578-0.721-1.205-1.115-1.868c-0.404-0.663-0.766-1.362-1.174-2.086
				c-0.369-0.724-0.77-1.472-1.104-2.23c-0.363-0.76-0.658-1.53-0.988-2.303c-0.316-0.771-0.844-1.543-1.383-2.304
				c-0.525-0.76-1.004-1.506-1.037-2.229c-0.062-0.724,0.244-1.423,0.697-2.086c0.211-0.331,0.512-0.653,0.758-0.966
				c0.318-0.312,0.578-0.613,0.936-0.902c0.648-0.578,1.396-1.109,2.184-1.58c0.404-0.234,0.783-0.455,1.133-0.658
				c0.41-0.203,0.787-0.391,1.127-0.56c0.324-0.168,0.705-0.319,1.008-0.45s0.564-0.242,0.826-0.332
				c0.49-0.182,0.752-0.277,0.752-0.277h2c0,0,0.264,0.097,0.754,0.277c0.262,0.09,0.523,0.201,0.826,0.332s0.684,0.282,1.006,0.45
				c0.34,0.169,0.717,0.356,1.127,0.56c0.352,0.203,0.73,0.425,1.135,0.658c0.787,0.471,1.533,1.002,2.184,1.58
				c0.355,0.289,0.617,0.592,0.934,0.902c0.248,0.312,0.547,0.635,0.76,0.966c0.451,0.663,0.762,1.362,0.697,2.086
				c-0.035,0.724-0.514,1.472-1.039,2.229c-0.537,0.761-1.062,1.531-1.381,2.304c-0.332,0.771-0.625,1.543-0.99,2.303
				c-0.332,0.761-0.732,1.507-1.102,2.23c-0.41,0.724-0.77,1.423-1.174,2.086c-0.396,0.663-0.771,1.29-1.115,1.868
				c-0.34,0.578-0.717,1.109-1.016,1.58c-0.303,0.47-0.58,0.879-0.828,1.218c-0.473,0.675-0.775,1.062-0.775,1.062H695.056z"/>
		</g>
		<g>
			<path d="M695.056,432.688c0,0-0.305-0.387-0.775-1.061c-0.248-0.338-0.525-0.748-0.828-1.219c-0.299-0.472-0.676-1-1.016-1.58
				c-0.346-0.578-0.721-1.205-1.115-1.867c-0.404-0.664-0.766-1.363-1.174-2.086c-0.369-0.725-0.77-1.471-1.104-2.23
				c-0.363-0.76-0.658-1.53-0.988-2.303c-0.316-0.771-0.844-1.543-1.383-2.303c-0.525-0.76-1.004-1.508-1.037-2.23
				c-0.062-0.725,0.244-1.424,0.697-2.086c0.211-0.332,0.512-0.654,0.758-0.967c0.318-0.311,0.578-0.613,0.936-0.902
				c0.648-0.578,1.396-1.108,2.184-1.58c0.404-0.233,0.783-0.455,1.133-0.657c0.41-0.203,0.787-0.392,1.127-0.56
				c0.324-0.168,0.705-0.32,1.008-0.451s0.564-0.242,0.826-0.332c0.49-0.182,0.752-0.276,0.752-0.276h2c0,0,0.264,0.096,0.754,0.276
				c0.262,0.09,0.523,0.201,0.826,0.332s0.684,0.283,1.006,0.451c0.34,0.168,0.717,0.355,1.127,0.56
				c0.352,0.202,0.73,0.424,1.135,0.657c0.787,0.472,1.533,1.002,2.184,1.58c0.355,0.289,0.617,0.592,0.934,0.902
				c0.248,0.312,0.547,0.635,0.76,0.967c0.451,0.662,0.762,1.361,0.697,2.086c-0.035,0.723-0.514,1.471-1.039,2.23
				c-0.537,0.76-1.062,1.531-1.381,2.303c-0.332,0.771-0.625,1.543-0.99,2.303c-0.332,0.761-0.732,1.507-1.102,2.23
				c-0.41,0.723-0.77,1.422-1.174,2.086c-0.396,0.662-0.771,1.289-1.115,1.867c-0.34,0.58-0.717,1.109-1.016,1.58
				c-0.303,0.471-0.58,0.881-0.828,1.219c-0.473,0.674-0.775,1.061-0.775,1.061H695.056z"/>
		</g>
		<g>
			<path d="M777.037,383.305c0,0-0.305-0.387-0.775-1.062c-0.25-0.339-0.525-0.748-0.828-1.218c-0.301-0.471-0.678-1.002-1.016-1.58
				c-0.346-0.578-0.721-1.205-1.115-1.868c-0.406-0.663-0.766-1.362-1.174-2.086c-0.369-0.724-0.77-1.472-1.104-2.23
				c-0.363-0.76-0.658-1.53-0.988-2.303c-0.318-0.771-0.844-1.543-1.383-2.304c-0.525-0.76-1.004-1.506-1.037-2.229
				c-0.064-0.724,0.244-1.423,0.697-2.086c0.211-0.331,0.512-0.653,0.758-0.966c0.316-0.312,0.576-0.613,0.936-0.902
				c0.648-0.578,1.396-1.109,2.182-1.58c0.406-0.234,0.783-0.455,1.135-0.658c0.41-0.203,0.787-0.391,1.127-0.56
				c0.322-0.168,0.705-0.319,1.008-0.45s0.564-0.242,0.826-0.332c0.49-0.182,0.752-0.277,0.752-0.277h2c0,0,0.262,0.097,0.754,0.277
				c0.26,0.09,0.521,0.201,0.826,0.332c0.303,0.131,0.684,0.282,1.006,0.45c0.34,0.169,0.717,0.356,1.127,0.56
				c0.352,0.203,0.729,0.425,1.135,0.658c0.787,0.471,1.533,1.002,2.182,1.58c0.357,0.289,0.617,0.592,0.936,0.902
				c0.248,0.312,0.547,0.635,0.758,0.966c0.453,0.663,0.762,1.362,0.699,2.086c-0.035,0.724-0.514,1.472-1.039,2.229
				c-0.537,0.761-1.064,1.531-1.381,2.304c-0.332,0.771-0.625,1.543-0.99,2.303c-0.332,0.761-0.732,1.507-1.104,2.23
				c-0.408,0.724-0.768,1.423-1.174,2.086c-0.395,0.663-0.77,1.29-1.115,1.868c-0.338,0.578-0.715,1.109-1.016,1.58
				c-0.301,0.47-0.578,0.879-0.828,1.218c-0.471,0.675-0.773,1.062-0.773,1.062H777.037z"/>
		</g>
		<g>
			<path d="M777.037,432.688c0,0-0.305-0.387-0.775-1.061c-0.25-0.338-0.525-0.748-0.828-1.219c-0.301-0.472-0.678-1-1.016-1.58
				c-0.346-0.578-0.721-1.205-1.115-1.867c-0.406-0.664-0.766-1.363-1.174-2.086c-0.369-0.725-0.77-1.471-1.104-2.23
				c-0.363-0.76-0.658-1.53-0.988-2.303c-0.318-0.771-0.844-1.543-1.383-2.303c-0.525-0.76-1.004-1.508-1.037-2.23
				c-0.064-0.725,0.244-1.424,0.697-2.086c0.211-0.332,0.512-0.654,0.758-0.967c0.316-0.311,0.576-0.613,0.936-0.902
				c0.648-0.578,1.396-1.108,2.182-1.58c0.406-0.233,0.783-0.455,1.135-0.657c0.41-0.203,0.787-0.392,1.127-0.56
				c0.322-0.168,0.705-0.32,1.008-0.451s0.564-0.242,0.826-0.332c0.49-0.182,0.752-0.276,0.752-0.276h2c0,0,0.262,0.096,0.754,0.276
				c0.26,0.09,0.521,0.201,0.826,0.332c0.303,0.131,0.684,0.283,1.006,0.451c0.34,0.168,0.717,0.355,1.127,0.56
				c0.352,0.202,0.729,0.424,1.135,0.657c0.787,0.472,1.533,1.002,2.182,1.58c0.357,0.289,0.617,0.592,0.936,0.902
				c0.248,0.312,0.547,0.635,0.758,0.967c0.453,0.662,0.762,1.361,0.699,2.086c-0.035,0.723-0.514,1.471-1.039,2.23
				c-0.537,0.76-1.064,1.531-1.381,2.303c-0.332,0.771-0.625,1.543-0.99,2.303c-0.332,0.761-0.732,1.507-1.104,2.23
				c-0.408,0.723-0.768,1.422-1.174,2.086c-0.395,0.662-0.77,1.289-1.115,1.867c-0.338,0.58-0.715,1.109-1.016,1.58
				s-0.578,0.881-0.828,1.219c-0.471,0.674-0.773,1.061-0.773,1.061H777.037z"/>
		</g>
		<g>
			<path d="M736.908,383.305c0,0-0.305-0.387-0.775-1.062c-0.248-0.339-0.525-0.748-0.828-1.218
				c-0.299-0.471-0.676-1.002-1.016-1.58c-0.346-0.578-0.719-1.205-1.115-1.868c-0.404-0.663-0.764-1.362-1.174-2.086
				c-0.369-0.724-0.77-1.472-1.104-2.23c-0.363-0.76-0.656-1.53-0.988-2.303c-0.316-0.771-0.844-1.543-1.381-2.304
				c-0.525-0.76-1.006-1.506-1.039-2.229c-0.062-0.724,0.244-1.423,0.697-2.086c0.211-0.331,0.512-0.653,0.76-0.966
				c0.316-0.312,0.576-0.613,0.934-0.902c0.65-0.578,1.396-1.109,2.184-1.58c0.404-0.234,0.783-0.455,1.135-0.658
				c0.408-0.203,0.785-0.391,1.127-0.56c0.322-0.168,0.703-0.319,1.006-0.45s0.564-0.242,0.826-0.332
				c0.49-0.182,0.754-0.277,0.754-0.277h2c0,0,0.262,0.097,0.752,0.277c0.262,0.09,0.523,0.201,0.826,0.332s0.684,0.282,1.008,0.45
				c0.34,0.169,0.717,0.356,1.127,0.56c0.35,0.203,0.729,0.425,1.133,0.658c0.787,0.471,1.533,1.002,2.184,1.58
				c0.357,0.289,0.617,0.592,0.936,0.902c0.246,0.312,0.547,0.635,0.758,0.966c0.453,0.663,0.762,1.362,0.697,2.086
				c-0.033,0.724-0.514,1.472-1.037,2.229c-0.539,0.761-1.064,1.531-1.383,2.304c-0.33,0.771-0.625,1.543-0.988,2.303
				c-0.334,0.761-0.734,1.507-1.104,2.23c-0.408,0.724-0.77,1.423-1.174,2.086c-0.396,0.663-0.77,1.29-1.115,1.868
				c-0.34,0.578-0.717,1.109-1.016,1.58c-0.303,0.47-0.58,0.879-0.828,1.218c-0.473,0.675-0.775,1.062-0.775,1.062H736.908z"/>
		</g>
		<g>
			<path d="M736.908,432.688c0,0-0.305-0.387-0.775-1.061c-0.248-0.338-0.525-0.748-0.828-1.219c-0.299-0.472-0.676-1-1.016-1.58
				c-0.346-0.578-0.719-1.205-1.115-1.867c-0.404-0.664-0.764-1.363-1.174-2.086c-0.369-0.725-0.77-1.471-1.104-2.23
				c-0.363-0.76-0.656-1.53-0.988-2.303c-0.316-0.771-0.844-1.543-1.381-2.303c-0.525-0.76-1.006-1.508-1.039-2.23
				c-0.062-0.725,0.244-1.424,0.697-2.086c0.211-0.332,0.512-0.654,0.76-0.967c0.316-0.311,0.576-0.613,0.934-0.902
				c0.65-0.578,1.396-1.108,2.184-1.58c0.404-0.233,0.783-0.455,1.135-0.657c0.408-0.203,0.785-0.392,1.127-0.56
				c0.322-0.168,0.703-0.32,1.006-0.451s0.564-0.242,0.826-0.332c0.49-0.182,0.754-0.276,0.754-0.276h2c0,0,0.262,0.096,0.752,0.276
				c0.262,0.09,0.523,0.201,0.826,0.332s0.684,0.283,1.008,0.451c0.34,0.168,0.717,0.355,1.127,0.56
				c0.35,0.202,0.729,0.424,1.133,0.657c0.787,0.472,1.533,1.002,2.184,1.58c0.357,0.289,0.617,0.592,0.936,0.902
				c0.246,0.312,0.547,0.635,0.758,0.967c0.453,0.662,0.762,1.361,0.697,2.086c-0.033,0.723-0.514,1.471-1.037,2.23
				c-0.539,0.76-1.064,1.531-1.383,2.303c-0.33,0.771-0.625,1.543-0.988,2.303c-0.334,0.761-0.734,1.507-1.104,2.23
				c-0.408,0.723-0.77,1.422-1.174,2.086c-0.396,0.662-0.77,1.289-1.115,1.867c-0.34,0.58-0.717,1.109-1.016,1.58
				c-0.303,0.471-0.58,0.881-0.828,1.219c-0.473,0.674-0.775,1.061-0.775,1.061H736.908z"/>
		</g>
		<g>
			<path d="M718.707,409.035c0,0-0.303-0.385-0.775-1.061c-0.248-0.339-0.525-0.748-0.828-1.218
				c-0.299-0.471-0.676-1.002-1.016-1.58c-0.346-0.577-0.719-1.204-1.115-1.868c-0.404-0.662-0.764-1.361-1.174-2.086
				c-0.369-0.724-0.77-1.472-1.102-2.23c-0.365-0.76-0.658-1.531-0.99-2.303c-0.316-0.771-0.844-1.543-1.381-2.303
				c-0.525-0.76-1.004-1.507-1.039-2.229c-0.062-0.724,0.246-1.423,0.697-2.087c0.213-0.33,0.512-0.653,0.76-0.965
				c0.316-0.312,0.576-0.613,0.934-0.902c0.65-0.579,1.396-1.109,2.184-1.58c0.404-0.234,0.783-0.455,1.135-0.658
				c0.408-0.203,0.787-0.391,1.127-0.561c0.322-0.168,0.703-0.318,1.006-0.449s0.564-0.242,0.826-0.333
				c0.492-0.181,0.754-0.277,0.754-0.277h2c0,0,0.262,0.097,0.752,0.277c0.262,0.091,0.523,0.202,0.826,0.333
				s0.684,0.281,1.008,0.449c0.34,0.17,0.717,0.356,1.127,0.561c0.35,0.203,0.729,0.424,1.133,0.658
				c0.787,0.471,1.533,1.001,2.184,1.58c0.357,0.289,0.617,0.591,0.936,0.902c0.246,0.312,0.547,0.635,0.758,0.965
				c0.453,0.664,0.762,1.363,0.697,2.087c-0.033,0.724-0.512,1.471-1.037,2.229c-0.539,0.76-1.064,1.531-1.383,2.303
				c-0.33,0.771-0.625,1.543-0.988,2.303c-0.334,0.76-0.734,1.508-1.104,2.23c-0.408,0.725-0.77,1.424-1.174,2.086
				c-0.396,0.664-0.77,1.291-1.115,1.868c-0.34,0.578-0.717,1.109-1.016,1.58c-0.303,0.47-0.58,0.879-0.828,1.218
				c-0.473,0.676-0.775,1.061-0.775,1.061H718.707z"/>
		</g>
		<g>
			<path d="M758.253,409.035c0,0-0.305-0.385-0.775-1.061c-0.25-0.339-0.525-0.748-0.828-1.218c-0.301-0.471-0.678-1.002-1.016-1.58
				c-0.346-0.577-0.721-1.204-1.115-1.868c-0.404-0.662-0.766-1.361-1.174-2.086c-0.369-0.724-0.77-1.472-1.104-2.23
				c-0.363-0.76-0.658-1.531-0.988-2.303c-0.318-0.771-0.844-1.543-1.383-2.303c-0.525-0.76-1.004-1.507-1.037-2.229
				c-0.064-0.724,0.244-1.423,0.697-2.087c0.211-0.33,0.512-0.653,0.758-0.965c0.316-0.312,0.578-0.613,0.936-0.902
				c0.648-0.579,1.396-1.109,2.184-1.58c0.404-0.234,0.781-0.455,1.133-0.658c0.41-0.203,0.787-0.391,1.127-0.561
				c0.324-0.168,0.705-0.318,1.008-0.449s0.564-0.242,0.826-0.333c0.49-0.181,0.752-0.277,0.752-0.277h2
				c0,0,0.262,0.097,0.754,0.277c0.26,0.091,0.523,0.202,0.826,0.333s0.684,0.281,1.006,0.449c0.34,0.17,0.717,0.356,1.127,0.561
				c0.352,0.203,0.73,0.424,1.135,0.658c0.787,0.471,1.533,1.001,2.184,1.58c0.355,0.289,0.615,0.591,0.934,0.902
				c0.248,0.312,0.547,0.635,0.758,0.965c0.453,0.664,0.764,1.363,0.699,2.087c-0.035,0.724-0.514,1.471-1.039,2.229
				c-0.537,0.76-1.064,1.531-1.381,2.303c-0.332,0.771-0.625,1.543-0.99,2.303c-0.332,0.76-0.732,1.508-1.102,2.23
				c-0.41,0.725-0.77,1.424-1.176,2.086c-0.395,0.664-0.77,1.291-1.113,1.868c-0.34,0.578-0.717,1.109-1.018,1.58
				c-0.301,0.47-0.578,0.879-0.828,1.218c-0.471,0.676-0.773,1.061-0.773,1.061H758.253z"/>
		</g>
		<g>
			<path d="M797.554,409.035c0,0-0.303-0.385-0.773-1.061c-0.25-0.339-0.527-0.748-0.828-1.218c-0.301-0.471-0.678-1.002-1.018-1.58
				c-0.346-0.577-0.719-1.204-1.113-1.868c-0.406-0.662-0.766-1.361-1.176-2.086c-0.367-0.724-0.77-1.472-1.102-2.23
				c-0.365-0.76-0.658-1.531-0.99-2.303c-0.316-0.771-0.844-1.543-1.381-2.303c-0.525-0.76-1.004-1.507-1.039-2.229
				c-0.062-0.724,0.246-1.423,0.699-2.087c0.211-0.33,0.51-0.653,0.758-0.965c0.316-0.312,0.576-0.613,0.934-0.902
				c0.65-0.579,1.396-1.109,2.184-1.58c0.406-0.234,0.783-0.455,1.135-0.658c0.41-0.203,0.787-0.391,1.127-0.561
				c0.322-0.168,0.703-0.318,1.006-0.449c0.305-0.131,0.566-0.242,0.826-0.333c0.492-0.181,0.754-0.277,0.754-0.277h2
				c0,0,0.262,0.097,0.752,0.277c0.262,0.091,0.523,0.202,0.826,0.333s0.684,0.281,1.008,0.449c0.34,0.17,0.717,0.356,1.127,0.561
				c0.352,0.203,0.729,0.424,1.133,0.658c0.787,0.471,1.533,1.001,2.184,1.58c0.357,0.289,0.617,0.591,0.936,0.902
				c0.246,0.312,0.547,0.635,0.758,0.965c0.453,0.664,0.762,1.363,0.697,2.087c-0.033,0.724-0.512,1.471-1.037,2.229
				c-0.539,0.76-1.064,1.531-1.383,2.303c-0.33,0.771-0.625,1.543-0.988,2.303c-0.334,0.76-0.732,1.508-1.104,2.23
				c-0.408,0.725-0.77,1.424-1.174,2.086c-0.396,0.664-0.77,1.291-1.115,1.868c-0.338,0.578-0.715,1.109-1.016,1.58
				c-0.303,0.47-0.578,0.879-0.828,1.218c-0.473,0.676-0.775,1.061-0.775,1.061H797.554z"/>
		</g>
	</g>
	<g>
		
			<rect x="230.4" y="142.145" fill="none" stroke="#000000" stroke-width="12" stroke-miterlimit="10" width="417.482" height="175.029"/>
		<rect x="230.4" y="62.062" stroke="#000000" stroke-width="12" stroke-miterlimit="10" width="417.482" height="117.641"/>
		<polygon fill="#FFFFFF" stroke="#000000" stroke-width="12" stroke-miterlimit="10" points="439.14,26.934 341.598,120.883 
			341.598,317.173 543.16,317.173 543.16,120.883 		"/>
		<rect x="417.464" y="247.641" stroke="#000000" stroke-width="12" stroke-miterlimit="10" width="49.828" height="69.532"/>
		<rect x="373.885" y="131.657" stroke="#000000" stroke-width="12" stroke-miterlimit="10" width="13.678" height="28.157"/>
		<rect x="373.885" y="199.593" stroke="#000000" stroke-width="12" stroke-miterlimit="10" width="13.678" height="28.156"/>
		<rect x="278.332" y="213.98" stroke="#000000" stroke-width="12" stroke-miterlimit="10" width="13.677" height="19.725"/>
		<rect x="586.828" y="213.98" stroke="#000000" stroke-width="12" stroke-miterlimit="10" width="13.678" height="19.725"/>
		<rect x="278.332" y="271.439" stroke="#000000" stroke-width="12" stroke-miterlimit="10" width="13.677" height="19.725"/>
		<rect x="435.541" y="131.657" stroke="#000000" stroke-width="12" stroke-miterlimit="10" width="13.676" height="28.157"/>
		<rect x="497.195" y="131.657" stroke="#000000" stroke-width="12" stroke-miterlimit="10" width="13.676" height="28.157"/>
	</g>
	<g>
		
			<rect x="257.174" y="28.055" fill="#FFFFFF" stroke="#000000" stroke-width="12" stroke-miterlimit="10" width="106.934" height="42.008"/>
		
			<line fill="none" stroke="#000000" stroke-width="12" stroke-miterlimit="10" x1="257.174" y1="49.059" x2="364.107" y2="49.059"/>
		
			<line fill="none" stroke="#000000" stroke-width="12" stroke-miterlimit="10" x1="310.641" y1="28.055" x2="310.641" y2="70.062"/>
		<line fill="none" stroke="#000000" stroke-width="12" stroke-miterlimit="10" x1="336.07" y1="28.055" x2="336.07" y2="70.062"/>
		
			<line fill="none" stroke="#000000" stroke-width="12" stroke-miterlimit="10" x1="285.475" y1="28.055" x2="285.475" y2="70.062"/>
		
			<rect x="514.175" y="28.055" fill="#FFFFFF" stroke="#000000" stroke-width="12" stroke-miterlimit="10" width="106.936" height="42.008"/>
		
			<line fill="none" stroke="#000000" stroke-width="12" stroke-miterlimit="10" x1="514.175" y1="49.059" x2="621.109" y2="49.059"/>
		
			<line fill="none" stroke="#000000" stroke-width="12" stroke-miterlimit="10" x1="567.642" y1="28.055" x2="567.642" y2="70.062"/>
		
			<line fill="none" stroke="#000000" stroke-width="12" stroke-miterlimit="10" x1="593.072" y1="28.055" x2="593.072" y2="70.062"/>
		
			<line fill="none" stroke="#000000" stroke-width="12" stroke-miterlimit="10" x1="542.476" y1="28.055" x2="542.476" y2="70.062"/>
	</g>
	<g>
		<linearGradient id="SVGID_1_" gradientUnits="userSpaceOnUse" x1="250.5366" y1="24.6143" x2="371.5404" y2="73.503">
			<stop  offset="0" style="stop-color:#FFFFFF"/>
			<stop  offset="0.148" style="stop-color:#2C3E96"/>
		</linearGradient>
		
			<rect x="257.572" y="28.055" fill="none" stroke="url(#SVGID_1_)" stroke-width="12" stroke-miterlimit="10" width="106.934" height="42.008"/>
		<linearGradient id="SVGID_2_" gradientUnits="userSpaceOnUse" x1="262.9907" y1="29.6455" x2="359.0873" y2="68.4711">
			<stop  offset="0" style="stop-color:#FFFFFF"/>
			<stop  offset="0.148" style="stop-color:#2C3E96"/>
		</linearGradient>
		
			<line fill="none" stroke="url(#SVGID_2_)" stroke-width="12" stroke-miterlimit="10" x1="257.572" y1="49.059" x2="364.505" y2="49.059"/>
		<linearGradient id="SVGID_3_" gradientUnits="userSpaceOnUse" x1="298.5845" y1="44.0273" x2="323.4917" y2="54.0905">
			<stop  offset="0" style="stop-color:#FFFFFF"/>
			<stop  offset="0.148" style="stop-color:#2C3E96"/>
		</linearGradient>
		
			<line fill="none" stroke="url(#SVGID_3_)" stroke-width="12" stroke-miterlimit="10" x1="311.039" y1="28.055" x2="311.039" y2="70.062"/>
		<linearGradient id="SVGID_4_" gradientUnits="userSpaceOnUse" x1="324.0142" y1="44.0273" x2="348.9214" y2="54.0905">
			<stop  offset="0" style="stop-color:#FFFFFF"/>
			<stop  offset="0.148" style="stop-color:#2C3E96"/>
		</linearGradient>
		
			<line fill="none" stroke="url(#SVGID_4_)" stroke-width="12" stroke-miterlimit="10" x1="336.468" y1="28.055" x2="336.468" y2="70.062"/>
		<linearGradient id="SVGID_5_" gradientUnits="userSpaceOnUse" x1="273.4194" y1="44.0273" x2="298.3275" y2="54.0909">
			<stop  offset="0" style="stop-color:#FFFFFF"/>
			<stop  offset="0.148" style="stop-color:#2C3E96"/>
		</linearGradient>
		
			<line fill="none" stroke="url(#SVGID_5_)" stroke-width="12" stroke-miterlimit="10" x1="285.874" y1="28.055" x2="285.874" y2="70.062"/>
		<linearGradient id="SVGID_6_" gradientUnits="userSpaceOnUse" x1="507.5386" y1="24.6138" x2="628.5442" y2="73.5032">
			<stop  offset="0" style="stop-color:#FFFFFF"/>
			<stop  offset="0.148" style="stop-color:#2C3E96"/>
		</linearGradient>
		
			<rect x="514.574" y="28.055" fill="none" stroke="url(#SVGID_6_)" stroke-width="12" stroke-miterlimit="10" width="106.936" height="42.008"/>
		<linearGradient id="SVGID_7_" gradientUnits="userSpaceOnUse" x1="519.9927" y1="29.6455" x2="616.0893" y2="68.4711">
			<stop  offset="0" style="stop-color:#FFFFFF"/>
			<stop  offset="0.148" style="stop-color:#2C3E96"/>
		</linearGradient>
		
			<line fill="none" stroke="url(#SVGID_7_)" stroke-width="12" stroke-miterlimit="10" x1="514.574" y1="49.059" x2="621.507" y2="49.059"/>
		<linearGradient id="SVGID_8_" gradientUnits="userSpaceOnUse" x1="555.5874" y1="44.0269" x2="580.4946" y2="54.09">
			<stop  offset="0" style="stop-color:#FFFFFF"/>
			<stop  offset="0.148" style="stop-color:#2C3E96"/>
		</linearGradient>
		
			<line fill="none" stroke="url(#SVGID_8_)" stroke-width="12" stroke-miterlimit="10" x1="568.041" y1="28.055" x2="568.041" y2="70.062"/>
		<linearGradient id="SVGID_9_" gradientUnits="userSpaceOnUse" x1="581.0171" y1="44.0273" x2="605.9243" y2="54.0905">
			<stop  offset="0" style="stop-color:#FFFFFF"/>
			<stop  offset="0.148" style="stop-color:#2C3E96"/>
		</linearGradient>
		
			<line fill="none" stroke="url(#SVGID_9_)" stroke-width="12" stroke-miterlimit="10" x1="593.47" y1="28.055" x2="593.47" y2="70.062"/>
		<linearGradient id="SVGID_10_" gradientUnits="userSpaceOnUse" x1="530.4204" y1="44.0273" x2="555.3285" y2="54.0909">
			<stop  offset="0" style="stop-color:#FFFFFF"/>
			<stop  offset="0.148" style="stop-color:#2C3E96"/>
		</linearGradient>
		
			<line fill="none" stroke="url(#SVGID_10_)" stroke-width="12" stroke-miterlimit="10" x1="542.875" y1="28.055" x2="542.875" y2="70.062"/>
	</g>
</g>
<g id="Layer_2">
	<g>
		<rect x="27.586" y="247.703" fill="#67451A" width="42.761" height="66.801"/>
		<rect x="95.108" y="247.703" fill="#67451A" width="42.761" height="66.801"/>
		<rect x="162.631" y="247.703" fill="#67451A" width="42.761" height="66.801"/>
		<rect x="27.586" y="273.775" fill="#231F20" width="42.761" height="11.308"/>
		<rect x="95.108" y="273.775" fill="#231F20" width="42.761" height="11.308"/>
		<rect x="162.631" y="273.775" fill="#231F20" width="42.761" height="11.308"/>
		<rect x="162.631" y="246.531" fill="#231F20" width="42.761" height="5.654"/>
		<rect x="162.631" y="308.85" fill="#231F20" width="42.761" height="5.654"/>
		<rect x="95.051" y="246.531" fill="#231F20" width="42.761" height="5.654"/>
		<rect x="95.051" y="308.85" fill="#231F20" width="42.761" height="5.654"/>
		<rect x="27.586" y="247.117" fill="#231F20" width="42.761" height="5.654"/>
		<rect x="27.586" y="309.436" fill="#231F20" width="42.761" height="5.654"/>
	</g>
	<rect x="262.914" y="376.945" fill="#FFFFFF" width="22.257" height="7.399"/>
	<rect x="691.414" y="258.496" fill="#FFFFFF" width="9.295" height="192.449"/>
	<g>
		<rect x="673.055" y="223.976" fill="#94959B" width="46.005" height="94.015"/>
		<circle fill="#FFFFFF" stroke="#000000" stroke-miterlimit="10" cx="697.055" cy="244.874" r="13.622"/>
		<g>
			<g>
				<circle fill="#FFFFFF" cx="697.055" cy="245.152" r="6.9"/>
				<g>
					<g>
						<g>
							<g>
								<g>
									<path fill="none" d="M696.495,244.396c0,0-0.022,0.225-0.062,0.617c-0.02,0.196-0.044,0.435-0.071,0.708
										c-0.006,0.122-0.017-0.001-0.021-0.033c-0.006-0.049-0.009-0.1-0.009-0.152c0.001-0.104,0.015-0.213,0.046-0.321
										c0.025-0.104,0.088-0.228,0.129-0.302c-0.01-0.021-0.011-0.042-0.004-0.06c0.015-0.035,0.076-0.038,0.062-0.091
										c0.01-0.042,0.083-0.021,0.077-0.081c0.02-0.04,0.086-0.007,0.096-0.069c0.032-0.034,0.093,0.006,0.117-0.055
										c0.038-0.033,0.097,0.029,0.12-0.028c0.017-0.011,0.036-0.011,0.054,0c0.009,0.004,0.018,0.012,0.025,0.021l0.002,0.001
										v0.001l0.001,0.001c-0.163-0.008,1.429,0.072,0.752,0.038l-0.036-0.004l-0.074-0.008l-0.146-0.015
										c-0.386-0.038-0.75-0.075-1.087-0.109c-0.071-0.004-0.014-0.01,0.01-0.014l0.083-0.01c0.055-0.005,0.108-0.006,0.16-0.004
										c0.104,0.005,0.202,0.022,0.289,0.049c0.178,0.051,0.331,0.16,0.312,0.118c0.043-0.006,0.056,0.018,0.057,0.017
										l-7.511,12.981c0,0,0.409,0.238,1.146,0.608c0.646,0.362,2.391,0.913,3.943,1.176c0.336,0.034,0.701,0.07,1.087,0.109
										l0.146,0.015l0.073,0.008l0.037,0.004l0.771,0.037l0.02-0.001l0.039-0.002c0.206-0.013,0.415-0.025,0.626-0.038
										c0.423-0.031,0.855-0.073,1.293-0.126c0.879-0.067,1.756-0.347,2.645-0.629c0.901-0.255,1.731-0.699,2.558-1.161
										c0.845-0.432,1.566-1.032,2.275-1.63c0.73-0.573,1.302-1.283,1.86-1.968c0.577-0.669,0.994-1.413,1.377-2.131
										c0.191-0.358,0.37-0.71,0.535-1.052c0.169-0.414,0.321-0.881,0.452-1.305c0.131-0.432,0.241-0.851,0.333-1.249
										c0.043-0.199,0.084-0.394,0.125-0.582c0.034-0.172,0.083-0.427,0.078-0.444c0.027-0.273,0.052-0.512,0.071-0.708
										c0.04-0.393,0.062-0.617,0.062-0.617L696.495,244.396z"/>
								</g>
								<path fill-rule="evenodd" clip-rule="evenodd" fill="#231F20" d="M697.202,252.569l-0.029-1.5c0,0-0.036,0.004-0.099,0.012
									l-0.012,0.001l-0.006,0.001h-0.001c0.195,0.01,0.054,0.003,0.098,0.005h-0.001h-0.002l-0.004-0.001l-0.031-0.003
									c-0.022-0.002-0.046-0.005-0.071-0.007c-0.051-0.005-0.108-0.011-0.171-0.018c-0.25-0.025-0.583-0.059-0.916-0.092
									c-0.347-0.025-0.525-0.163-0.734-0.207c-0.188-0.059-0.314-0.097-0.314-0.097l-0.52,1.406c0,0,0.179,0.056,0.447,0.14
									c0.262,0.064,0.642,0.229,0.97,0.25c0.334,0.033,0.667,0.067,0.917,0.092c0.149,0.012,0.174,0.025,0.356,0.029
									C697.157,252.573,697.202,252.569,697.202,252.569z"/>
								<path fill-rule="evenodd" clip-rule="evenodd" fill="#231F20" d="M701.92,250.73l-0.986-1.13c0,0-0.111,0.091-0.277,0.229
									c-0.083,0.069-0.18,0.151-0.282,0.238c-0.119,0.063-0.246,0.131-0.373,0.198c-0.256,0.131-0.499,0.289-0.698,0.369
									c-0.206,0.062-0.344,0.104-0.344,0.104l0.483,1.42c0,0,0.172-0.055,0.43-0.136c0.25-0.101,0.56-0.291,0.879-0.457
									c0.158-0.088,0.315-0.175,0.464-0.256c0.131-0.107,0.253-0.207,0.357-0.293C701.781,250.845,701.92,250.73,701.92,250.73z"
									/>
								<path fill-rule="evenodd" clip-rule="evenodd" fill="#231F20" d="M704.374,246.294l-1.492-0.151
									c-0.009-0.013,0.003,0.195-0.062,0.388c-0.068,0.188-0.153,0.436-0.229,0.688c-0.045,0.253-0.228,0.504-0.321,0.693
									c-0.102,0.189-0.17,0.316-0.17,0.316l1.28,0.782c0,0,0.086-0.159,0.215-0.396c0.121-0.243,0.327-0.537,0.415-0.91
									c0.108-0.358,0.216-0.716,0.297-0.984C704.38,246.451,704.363,246.298,704.374,246.294z"/>
							</g>
						</g>
						<g>
							<g>
								<g>
									<path fill="none" d="M697.375,244.612c0.005-0.009,0.005,0.033,0.037,0.045c0.021-0.003,0.045,0.002,0.058,0.023
										c0.007,0.011,0.011,0.025,0.01,0.044c0.011,0.007,0.035,0.003,0.046,0.013c0.061,0.083,0.141,0.277,0.129,0.415
										c-0.076,1.509-0.021,0.415-0.038,0.75l0.001-0.005l0.001-0.011l0.002-0.021l0.005-0.042l0.008-0.084l0.018-0.169
										l0.033-0.335l0.067-0.667c0.005-0.098,0.014,0.003,0.019,0.024l0.01,0.112c0.003,0.074-0.001,0.148-0.011,0.221
										c-0.02,0.146-0.065,0.282-0.131,0.403c-0.05,0.144-0.006,0.119-0.064,0.155c-0.048,0.011-0.005,0.077-0.048,0.082
										c-0.011,0.01-0.035,0.006-0.046,0.013c0.001,0.019-0.003,0.033-0.01,0.044c-0.013,0.021-0.036,0.026-0.058,0.023
										c-0.032,0.012-0.032,0.054-0.037,0.045l-7.511-12.981c0,0-0.103,0.058-0.295,0.167c-0.184,0.121-0.485,0.253-0.803,0.514
										c-0.326,0.249-0.719,0.559-1.155,0.93c-0.215,0.188-0.443,0.39-0.685,0.602c-0.226,0.226-0.442,0.485-0.673,0.751
										c-0.443,0.549-0.968,1.112-1.368,1.814c-0.205,0.349-0.409,0.713-0.608,1.09c-0.097,0.189-0.195,0.381-0.294,0.573
										c-0.097,0.202-0.191,0.362-0.288,0.651c-0.19,0.524-0.363,1.072-0.513,1.633c-0.074,0.28-0.143,0.563-0.205,0.848
										l-0.088,0.428c-0.024,0.128-0.063,0.332-0.061,0.347l-0.067,0.667l-0.033,0.336l-0.018,0.168l-0.008,0.084l-0.005,0.042
										l-0.042,0.798c0.045,0.934,0.139,1.877,0.276,2.788c0.204,0.9,0.489,1.782,0.784,2.614
										c0.336,0.812,0.767,1.561,1.169,2.262c0.4,0.702,0.925,1.266,1.368,1.814c0.23,0.266,0.447,0.525,0.673,0.751
										c0.241,0.212,0.47,0.413,0.685,0.602c0.437,0.371,0.829,0.681,1.155,0.93c0.317,0.261,0.619,0.393,0.803,0.514
										c0.192,0.109,0.295,0.167,0.295,0.167L697.375,244.612z"/>
								</g>
								<path fill-rule="evenodd" clip-rule="evenodd" fill="#231F20" d="M690.575,241.58l1.313,0.726c0,0,0.241-0.528,0.647-0.944
									c0.327-0.483,0.835-0.786,0.818-0.803l-0.942-1.168c0,0-0.139,0.115-0.347,0.288c-0.226,0.155-0.45,0.438-0.678,0.718
									C690.885,240.924,690.576,241.581,690.575,241.58z"/>
								<path fill-rule="evenodd" clip-rule="evenodd" fill="#231F20" d="M689.768,246.581l1.473-0.288c0,0-0.014-0.143-0.033-0.358
									c-0.011-0.107-0.023-0.232-0.036-0.366c-0.008-0.067-0.016-0.137-0.023-0.207l-0.012-0.106l-0.006-0.054l-0.003-0.027
									l-0.002-0.013l-0.001-0.007v-0.002c-0.01,0.195-0.003,0.054-0.005,0.097v-0.001l0.001-0.004
									c0.066-0.666,0.134-1.332,0.134-1.332l-1.492-0.151c0,0-0.067,0.666-0.135,1.332c0.026,0.465,0.067,0.747,0.094,1.04
									C689.75,246.401,689.768,246.581,689.768,246.581z"/>
								<path fill-rule="evenodd" clip-rule="evenodd" fill="#231F20" d="M692.389,250.896l0.946-1.164c0,0-0.111-0.092-0.278-0.229
									c-0.186-0.117-0.352-0.356-0.536-0.577c-0.408-0.416-0.644-0.947-0.645-0.947l-1.315,0.72c0,0,0.305,0.661,0.808,1.188
									c0.23,0.276,0.447,0.567,0.674,0.722C692.25,250.78,692.389,250.896,692.389,250.896z"/>
							</g>
						</g>
						<g>
							<g>
								<g>
									<path fill="none" d="M697.375,245.692c-0.001-0.001-0.014,0.022-0.057,0.017c-0.043-0.019-0.069,0.094-0.152,0.035
										c-0.021,0.037-0.055,0.051-0.088,0.027l-0.013-0.01l-0.007-0.007l-0.003-0.004c0.676,0.034-0.921-0.047-0.755-0.038
										l0.005,0.001h0.01l0.019,0.002l0.3,0.03c0.202,0.021,0.409,0.042,0.62,0.062l0.317,0.032
										c0.025,0.006,0.172,0.01,0.091,0.018l-0.109,0.014c-0.146,0.013-0.298-0.001-0.439-0.042
										c-0.07-0.021-0.14-0.047-0.204-0.079l-0.091-0.05l-0.02,0.007c-0.025,0.006-0.047,0.001-0.062-0.016
										c-0.277-0.151-0.366-0.566-0.279-0.54h14.998c0,0-0.016-0.467-0.092-1.287c-0.039-0.41-0.096-0.908-0.181-1.472
										c-0.112-0.56-0.306-1.186-0.521-1.861c-0.111-0.337-0.226-0.688-0.367-1.041c-0.165-0.342-0.344-0.693-0.535-1.052
										c-0.383-0.718-0.8-1.462-1.377-2.131c-0.559-0.685-1.13-1.395-1.86-1.968c-0.709-0.598-1.431-1.198-2.275-1.63
										c-0.411-0.231-0.83-0.452-1.25-0.66l-0.315-0.154l-0.409-0.152c-0.278-0.099-0.56-0.192-0.843-0.278
										c-0.565-0.172-1.137-0.317-1.699-0.434c-0.28-0.059-0.612-0.12-0.647-0.114l-0.318-0.032
										c-0.21-0.021-0.417-0.042-0.619-0.062l-0.301-0.03l-0.796-0.041l-0.077,0.004l-0.153,0.008l-0.304,0.019
										c-0.805,0.055-1.567,0.143-2.262,0.247c-1.365,0.345-2.516,0.695-3.242,1.071c-0.737,0.37-1.146,0.608-1.146,0.608
										L697.375,245.692z"/>
								</g>
								<path fill-rule="evenodd" clip-rule="evenodd" fill="#231F20" d="M703.394,241.321l-1.283,0.776
									c0,0,0.068,0.127,0.171,0.316c0.099,0.191,0.267,0.432,0.323,0.717c0.087,0.274,0.173,0.549,0.237,0.754
									c0.052,0.209,0.041,0.357,0.048,0.355l1.482-0.23c0,0-0.002-0.183-0.064-0.444c-0.08-0.258-0.187-0.603-0.293-0.947
									c-0.083-0.355-0.281-0.661-0.405-0.901C703.48,241.479,703.394,241.321,703.394,241.321z"/>
								<path fill-rule="evenodd" clip-rule="evenodd" fill="#231F20" d="M699.437,238.145l-0.436,1.436
									c0,0,0.126,0.038,0.315,0.094c0.189,0.082,0.439,0.239,0.693,0.369c0.126,0.068,0.253,0.137,0.371,0.201
									c0.104,0.087,0.2,0.168,0.283,0.237c0.166,0.138,0.277,0.229,0.277,0.229l0.988-1.129c0,0-0.14-0.114-0.348-0.286
									c-0.104-0.086-0.228-0.186-0.357-0.293c-0.147-0.082-0.306-0.17-0.463-0.257c-0.319-0.169-0.627-0.354-0.88-0.461
									C699.615,238.201,699.437,238.145,699.437,238.145z"/>
								<path fill-rule="evenodd" clip-rule="evenodd" fill="#231F20" d="M694.409,238.228l0.536,1.401c0,0,0.137-0.042,0.344-0.104
									c0.209-0.044,0.47-0.194,0.762-0.199c0.286-0.028,0.572-0.057,0.787-0.079c0.054-0.006,0.104-0.011,0.146-0.017l0.062-0.007
									l0.007-0.001h0.002h0.001c0.087,0.005-0.119-0.006-0.098-0.005h0.001h0.004l0.016,0.002l0.028,0.003
									c0.073,0.008,0.114,0.012,0.114,0.012l0.151-1.492c0,0-0.042-0.005-0.114-0.012c-0.178-0.018-0.218,0.011-0.375,0.018
									c-0.269,0.027-0.628,0.063-0.986,0.101c-0.362,0.016-0.695,0.185-0.957,0.245
									C694.581,238.174,694.409,238.228,694.409,238.228z"/>
							</g>
						</g>
					</g>
				</g>
			</g>
			<rect x="696.055" y="441.945" fill="#FFFFFF" width="26.258" height="9"/>
			<rect x="713.018" y="340.945" fill="#FFFFFF" width="9.295" height="110"/>
			<rect x="693.137" y="258.496" fill="#9A1900" width="1.999" height="190.949"/>
			<rect x="697.055" y="258.496" fill="#095DFF" width="1.999" height="186.116"/>
			<rect x="694.056" y="447.404" fill="#9A1900" width="26.608" height="1.999"/>
			<rect x="697.056" y="443.486" fill="#095DFF" width="17.858" height="1.999"/>
			<rect x="713.018" y="340.945" fill="#FFFFFF" width="28.771" height="9"/>
			<rect x="718.708" y="347.445" fill="#9A1900" width="1.999" height="102"/>
			<rect x="714.875" y="342.695" fill="#095DFF" width="1.999" height="102.79"/>
			<rect x="718.666" y="346.446" fill="#9A1900" width="15.748" height="1.999"/>
			<rect x="714.875" y="342.695" fill="#095DFF" width="25.135" height="1.999"/>
			<rect x="732.494" y="349.445" fill="#FFFFFF" width="9.295" height="101.5"/>
			<rect x="732.494" y="441.945" fill="#FFFFFF" width="30.417" height="9"/>
			<rect x="734.102" y="346.446" fill="#9A1900" width="1.999" height="102"/>
			<rect x="738.01" y="343.695" fill="#095DFF" width="1.999" height="102.75"/>
			<rect x="754.013" y="341.445" fill="#FFFFFF" width="9.295" height="109.5"/>
			<rect x="734.102" y="447.946" fill="#9A1900" width="27.54" height="1.999"/>
			<rect x="738.034" y="444.446" fill="#095DFF" width="17.858" height="1.999"/>
			<rect x="754.013" y="341.445" fill="#FFFFFF" width="28.771" height="9"/>
			<rect x="759.704" y="347.445" fill="#9A1900" width="1.999" height="102.5"/>
			<rect x="755.87" y="343.695" fill="#095DFF" width="1.999" height="102.75"/>
			<rect x="759.661" y="346.946" fill="#9A1900" width="15.748" height="1.999"/>
			<rect x="755.87" y="343.195" fill="#095DFF" width="25.135" height="1.999"/>
			<rect x="773.39" y="349.445" fill="#FFFFFF" width="9.394" height="101.5"/>
			<rect x="773.428" y="441.945" fill="#FFFFFF" width="29.773" height="9"/>
			<rect x="774.992" y="346.946" fill="#9A1900" width="1.999" height="102"/>
			<rect x="779.005" y="343.195" fill="#095DFF" width="1.999" height="102.75"/>
			<rect x="793.907" y="341.07" fill="#FFFFFF" width="9.295" height="109.875"/>
			<rect x="775.037" y="447.677" fill="#9A1900" width="26.56" height="1.999"/>
			<rect x="778.968" y="443.946" fill="#095DFF" width="18.794" height="1.999"/>
			<rect x="799.597" y="342.695" fill="#9A1900" width="1.999" height="106.875"/>
			<rect x="795.763" y="342.695" fill="#095DFF" width="1.999" height="102.915"/>
		</g>
	</g>
	<g>
		<path fill="#46ADD1" d="M69.569,199.704c0,0,0.182,0.311,0.465,0.854c0.149,0.272,0.315,0.603,0.497,0.981
			c0.18,0.378,0.406,0.806,0.609,1.271c0.415,0.933,0.906,2.021,1.373,3.186c0.465,1.166,0.878,2.409,1.255,3.651
			c0.191,0.622,0.506,1.243,0.83,1.855c0.319,0.611,0.595,1.214,0.623,1.797c0.04,0.582-0.15,1.146-0.419,1.68
			c-0.274,0.534-0.609,1.039-1.015,1.506c-0.39,0.466-0.837,0.894-1.31,1.271c-0.243,0.189-0.47,0.367-0.68,0.531
			c-0.246,0.163-0.472,0.314-0.676,0.45c-0.426,0.271-0.805,0.485-1.1,0.631s-0.452,0.224-0.452,0.224h-1.2
			c0,0-0.157-0.078-0.452-0.224s-0.674-0.359-1.1-0.631c-0.204-0.136-0.43-0.287-0.676-0.45c-0.21-0.164-0.438-0.342-0.68-0.531
			c-0.473-0.378-0.92-0.806-1.31-1.271c-0.406-0.467-0.741-0.972-1.015-1.506c-0.269-0.534-0.458-1.098-0.419-1.68
			c0.027-0.583,0.303-1.186,0.623-1.797c0.323-0.612,0.639-1.233,0.83-1.855c0.376-1.242,0.79-2.485,1.255-3.651
			c0.467-1.165,0.958-2.253,1.373-3.186c0.204-0.466,0.43-0.894,0.609-1.271c0.182-0.379,0.348-0.709,0.497-0.981
			c0.283-0.544,0.465-0.854,0.465-0.854H69.569z"/>
	</g>
	<g>
		<path fill="#46ADD1" d="M92.201,199.704c0,0,0.182,0.311,0.465,0.854c0.149,0.272,0.315,0.603,0.497,0.981
			c0.179,0.378,0.406,0.806,0.609,1.271c0.415,0.933,0.906,2.021,1.373,3.186c0.465,1.166,0.878,2.409,1.255,3.651
			c0.191,0.622,0.506,1.243,0.83,1.855c0.319,0.611,0.595,1.214,0.623,1.797c0.04,0.582-0.15,1.146-0.419,1.68
			c-0.274,0.534-0.609,1.039-1.015,1.506c-0.39,0.466-0.837,0.894-1.31,1.271c-0.243,0.189-0.47,0.367-0.68,0.531
			c-0.246,0.163-0.472,0.314-0.676,0.45c-0.426,0.271-0.805,0.485-1.1,0.631s-0.452,0.224-0.452,0.224H91
			c0,0-0.157-0.078-0.452-0.224s-0.674-0.359-1.1-0.631c-0.204-0.136-0.43-0.287-0.676-0.45c-0.21-0.164-0.438-0.342-0.68-0.531
			c-0.473-0.378-0.92-0.806-1.31-1.271c-0.406-0.467-0.741-0.972-1.015-1.506c-0.269-0.534-0.458-1.098-0.419-1.68
			c0.027-0.583,0.303-1.186,0.623-1.797c0.323-0.612,0.639-1.233,0.83-1.855c0.376-1.242,0.79-2.485,1.255-3.651
			c0.467-1.165,0.958-2.253,1.373-3.186c0.204-0.466,0.43-0.894,0.609-1.271c0.182-0.379,0.348-0.709,0.497-0.981
			c0.283-0.544,0.465-0.854,0.465-0.854H92.201z"/>
	</g>
	<g>
		<path fill="#46ADD1" d="M114.833,199.704c0,0,0.182,0.311,0.465,0.854c0.149,0.272,0.315,0.603,0.497,0.981
			c0.18,0.378,0.406,0.806,0.609,1.271c0.415,0.933,0.906,2.021,1.373,3.186c0.465,1.166,0.878,2.409,1.255,3.651
			c0.191,0.622,0.506,1.243,0.83,1.855c0.319,0.611,0.595,1.214,0.623,1.797c0.04,0.582-0.15,1.146-0.419,1.68
			c-0.274,0.534-0.609,1.039-1.015,1.506c-0.39,0.466-0.837,0.894-1.31,1.271c-0.243,0.189-0.47,0.367-0.68,0.531
			c-0.246,0.163-0.472,0.314-0.676,0.45c-0.426,0.271-0.805,0.485-1.1,0.631c-0.295,0.146-0.452,0.224-0.452,0.224h-1.2
			c0,0-0.157-0.078-0.452-0.224c-0.295-0.146-0.674-0.359-1.1-0.631c-0.204-0.136-0.43-0.287-0.676-0.45
			c-0.21-0.164-0.438-0.342-0.68-0.531c-0.473-0.378-0.92-0.806-1.31-1.271c-0.406-0.467-0.741-0.972-1.015-1.506
			c-0.269-0.534-0.458-1.098-0.419-1.68c0.027-0.583,0.303-1.186,0.623-1.797c0.323-0.612,0.639-1.233,0.83-1.855
			c0.376-1.242,0.79-2.485,1.255-3.651c0.467-1.165,0.958-2.253,1.373-3.186c0.204-0.466,0.43-0.894,0.609-1.271
			c0.182-0.379,0.348-0.709,0.497-0.981c0.283-0.544,0.465-0.854,0.465-0.854H114.833z"/>
	</g>
	<g>
		<path fill="#46ADD1" d="M137.463,199.704c0,0,0.182,0.311,0.465,0.854c0.149,0.272,0.315,0.603,0.497,0.981
			c0.179,0.378,0.406,0.806,0.609,1.271c0.415,0.933,0.906,2.021,1.373,3.186c0.465,1.166,0.878,2.409,1.255,3.651
			c0.191,0.622,0.506,1.243,0.83,1.855c0.319,0.611,0.595,1.214,0.623,1.797c0.04,0.582-0.15,1.146-0.419,1.68
			c-0.274,0.534-0.609,1.039-1.015,1.506c-0.39,0.466-0.837,0.894-1.31,1.271c-0.243,0.189-0.47,0.367-0.68,0.531
			c-0.246,0.163-0.472,0.314-0.676,0.45c-0.426,0.271-0.805,0.485-1.1,0.631s-0.452,0.224-0.452,0.224h-1.2
			c0,0-0.157-0.078-0.452-0.224s-0.674-0.359-1.1-0.631c-0.204-0.136-0.43-0.287-0.676-0.45c-0.21-0.164-0.438-0.342-0.68-0.531
			c-0.473-0.378-0.92-0.806-1.31-1.271c-0.406-0.467-0.741-0.972-1.015-1.506c-0.269-0.534-0.458-1.098-0.419-1.68
			c0.027-0.583,0.303-1.186,0.623-1.797c0.323-0.612,0.639-1.233,0.83-1.855c0.376-1.242,0.79-2.485,1.255-3.651
			c0.467-1.165,0.958-2.253,1.373-3.186c0.204-0.466,0.43-0.894,0.609-1.271c0.182-0.379,0.348-0.709,0.497-0.981
			c0.283-0.544,0.465-0.854,0.465-0.854H137.463z"/>
	</g>
	<g>
		<path fill="#46ADD1" d="M160.094,199.704c0,0,0.182,0.311,0.465,0.854c0.149,0.272,0.315,0.603,0.497,0.981
			c0.18,0.378,0.406,0.806,0.609,1.271c0.415,0.933,0.906,2.021,1.373,3.186c0.465,1.166,0.878,2.409,1.255,3.651
			c0.191,0.622,0.506,1.243,0.83,1.855c0.319,0.611,0.595,1.214,0.623,1.797c0.04,0.582-0.15,1.146-0.419,1.68
			c-0.274,0.534-0.609,1.039-1.015,1.506c-0.39,0.466-0.837,0.894-1.31,1.271c-0.243,0.189-0.47,0.367-0.68,0.531
			c-0.246,0.163-0.472,0.314-0.676,0.45c-0.426,0.271-0.805,0.485-1.1,0.631s-0.452,0.224-0.452,0.224h-1.2
			c0,0-0.157-0.078-0.452-0.224s-0.674-0.359-1.1-0.631c-0.204-0.136-0.43-0.287-0.676-0.45c-0.21-0.164-0.438-0.342-0.68-0.531
			c-0.473-0.378-0.92-0.806-1.31-1.271c-0.406-0.467-0.741-0.972-1.015-1.506c-0.269-0.534-0.459-1.098-0.419-1.68
			c0.027-0.583,0.303-1.186,0.623-1.797c0.323-0.612,0.639-1.233,0.83-1.855c0.376-1.242,0.79-2.485,1.255-3.651
			c0.467-1.165,0.958-2.253,1.373-3.186c0.204-0.466,0.43-0.894,0.609-1.271c0.182-0.379,0.348-0.709,0.497-0.981
			c0.283-0.544,0.465-0.854,0.465-0.854H160.094z"/>
	</g>
	<g>
		<path fill="#46ADD1" d="M92.202,169.759c0,0,0.182,0.311,0.465,0.854c0.149,0.272,0.315,0.603,0.497,0.981
			c0.18,0.378,0.406,0.806,0.609,1.271c0.415,0.933,0.906,2.021,1.373,3.186c0.465,1.166,0.878,2.409,1.255,3.651
			c0.191,0.622,0.506,1.243,0.83,1.855c0.319,0.611,0.595,1.214,0.623,1.797c0.04,0.582-0.15,1.146-0.419,1.68
			c-0.274,0.534-0.609,1.039-1.015,1.506c-0.39,0.466-0.837,0.894-1.31,1.271c-0.243,0.189-0.47,0.367-0.68,0.531
			c-0.246,0.163-0.472,0.314-0.676,0.45c-0.426,0.271-0.805,0.485-1.1,0.631c-0.295,0.146-0.452,0.224-0.452,0.224H91
			c0,0-0.157-0.078-0.452-0.224s-0.674-0.359-1.1-0.631c-0.204-0.136-0.43-0.287-0.676-0.45c-0.21-0.164-0.438-0.342-0.68-0.531
			c-0.473-0.378-0.92-0.806-1.31-1.271c-0.406-0.467-0.741-0.972-1.015-1.506c-0.269-0.534-0.458-1.098-0.419-1.68
			c0.027-0.583,0.303-1.186,0.623-1.797c0.323-0.612,0.639-1.233,0.83-1.855c0.376-1.242,0.79-2.485,1.255-3.651
			c0.467-1.165,0.958-2.253,1.373-3.186c0.204-0.466,0.43-0.894,0.609-1.271c0.182-0.379,0.348-0.709,0.497-0.981
			c0.283-0.544,0.465-0.854,0.465-0.854H92.202z"/>
	</g>
	<g>
		<path fill="#46ADD1" d="M114.833,169.759c0,0,0.182,0.311,0.465,0.854c0.149,0.272,0.315,0.603,0.497,0.981
			c0.179,0.378,0.406,0.806,0.609,1.271c0.415,0.933,0.906,2.021,1.373,3.186c0.465,1.166,0.878,2.409,1.255,3.651
			c0.191,0.622,0.506,1.243,0.83,1.855c0.319,0.611,0.595,1.214,0.623,1.797c0.04,0.582-0.15,1.146-0.419,1.68
			c-0.274,0.534-0.609,1.039-1.015,1.506c-0.39,0.466-0.837,0.894-1.31,1.271c-0.243,0.189-0.47,0.367-0.68,0.531
			c-0.246,0.163-0.472,0.314-0.676,0.45c-0.426,0.271-0.805,0.485-1.1,0.631c-0.295,0.146-0.452,0.224-0.452,0.224h-1.2
			c0,0-0.157-0.078-0.452-0.224c-0.295-0.146-0.674-0.359-1.1-0.631c-0.204-0.136-0.43-0.287-0.676-0.45
			c-0.21-0.164-0.438-0.342-0.68-0.531c-0.473-0.378-0.92-0.806-1.31-1.271c-0.406-0.467-0.741-0.972-1.015-1.506
			c-0.269-0.534-0.458-1.098-0.419-1.68c0.027-0.583,0.303-1.186,0.623-1.797c0.323-0.612,0.639-1.233,0.83-1.855
			c0.376-1.242,0.79-2.485,1.255-3.651c0.467-1.165,0.958-2.253,1.373-3.186c0.204-0.466,0.43-0.894,0.609-1.271
			c0.182-0.379,0.348-0.709,0.497-0.981c0.283-0.544,0.465-0.854,0.465-0.854H114.833z"/>
	</g>
	<g>
		<path fill="#46ADD1" d="M137.463,169.759c0,0,0.182,0.311,0.465,0.854c0.149,0.272,0.315,0.603,0.497,0.981
			c0.18,0.378,0.406,0.806,0.609,1.271c0.415,0.933,0.906,2.021,1.373,3.186c0.465,1.166,0.878,2.409,1.255,3.651
			c0.191,0.622,0.506,1.243,0.83,1.855c0.319,0.611,0.595,1.214,0.623,1.797c0.04,0.582-0.15,1.146-0.419,1.68
			c-0.274,0.534-0.609,1.039-1.015,1.506c-0.39,0.466-0.837,0.894-1.31,1.271c-0.243,0.189-0.47,0.367-0.68,0.531
			c-0.246,0.163-0.472,0.314-0.676,0.45c-0.426,0.271-0.805,0.485-1.1,0.631s-0.452,0.224-0.452,0.224h-1.2
			c0,0-0.157-0.078-0.452-0.224s-0.674-0.359-1.1-0.631c-0.204-0.136-0.43-0.287-0.676-0.45c-0.21-0.164-0.438-0.342-0.68-0.531
			c-0.473-0.378-0.92-0.806-1.31-1.271c-0.406-0.467-0.741-0.972-1.015-1.506c-0.269-0.534-0.459-1.098-0.419-1.68
			c0.027-0.583,0.303-1.186,0.623-1.797c0.323-0.612,0.639-1.233,0.83-1.855c0.376-1.242,0.79-2.485,1.255-3.651
			c0.467-1.165,0.958-2.253,1.373-3.186c0.204-0.466,0.43-0.894,0.609-1.271c0.182-0.379,0.348-0.709,0.497-0.981
			c0.283-0.544,0.465-0.854,0.465-0.854H137.463z"/>
	</g>
	<g>
		<path fill="#46ADD1" d="M114.833,137.565c0,0,0.182,0.311,0.465,0.854c0.149,0.272,0.315,0.603,0.497,0.981
			c0.179,0.378,0.406,0.806,0.609,1.271c0.415,0.933,0.906,2.021,1.373,3.186c0.465,1.166,0.878,2.409,1.255,3.651
			c0.191,0.622,0.506,1.243,0.83,1.855c0.319,0.611,0.595,1.214,0.623,1.797c0.04,0.582-0.15,1.146-0.419,1.68
			c-0.274,0.534-0.609,1.039-1.015,1.506c-0.39,0.466-0.837,0.894-1.31,1.271c-0.243,0.189-0.47,0.367-0.68,0.531
			c-0.246,0.163-0.472,0.314-0.676,0.45c-0.426,0.271-0.805,0.485-1.1,0.631c-0.295,0.146-0.452,0.224-0.452,0.224h-1.2
			c0,0-0.157-0.078-0.452-0.224c-0.295-0.146-0.674-0.359-1.1-0.631c-0.204-0.136-0.43-0.287-0.676-0.45
			c-0.21-0.164-0.438-0.342-0.68-0.531c-0.473-0.378-0.92-0.806-1.31-1.271c-0.406-0.467-0.741-0.972-1.015-1.506
			c-0.269-0.534-0.458-1.098-0.419-1.68c0.027-0.583,0.303-1.186,0.623-1.797c0.323-0.612,0.639-1.233,0.83-1.855
			c0.376-1.242,0.79-2.485,1.255-3.651c0.467-1.165,0.958-2.253,1.373-3.186c0.204-0.466,0.43-0.894,0.609-1.271
			c0.182-0.379,0.348-0.709,0.497-0.981c0.283-0.544,0.465-0.854,0.465-0.854H114.833z"/>
	</g>
</g>
</svg>
