<?xml version="1.0" encoding="utf-8"?>
<!-- Generator: Adobe Illustrator 16.0.0, SVG Export Plug-In . SVG Version: 6.00 Build 0)  -->
<!DOCTYPE svg PUBLIC "-//W3C//DTD SVG 1.1//EN" "http://www.w3.org/Graphics/SVG/1.1/DTD/svg11.dtd">
<svg version="1.1" id="Layer_1" xmlns="http://www.w3.org/2000/svg" xmlns:xlink="http://www.w3.org/1999/xlink" x="0px" y="0px"
	 width="512px" height="512px" viewBox="0 0 512 512" enable-background="new 0 0 512 512" xml:space="preserve">
<ellipse fill="#FFFFFF" cx="150.8" cy="255.746" rx="39.8" ry="42.784"/>
<ellipse fill="#FFFFFF" cx="363.531" cy="106.89" rx="39.8" ry="42.784"/>
<path id="coin-9-icon" fill="#FF6633" d="M147.722,208.427c-53.97,0-97.722,21.25-97.722,47.461s43.752,47.458,97.722,47.458
	c53.971,0,97.723-21.246,97.723-47.458S201.692,208.427,147.722,208.427z M154.397,280.159l-0.003,6.354l-12.389-0.021v-5.685
	c-5.942-0.383-13.795-1.979-19.578-4.328l4.101-10.473c5.365,1.547,12.751,3.42,19.131,3.43c1.407,0.004,2.766-0.086,4.045-0.287
	c6.181-0.979,7.739-5.053,0.465-7.364c-6.143-2.037-27.293-4.19-27.291-17.174c0.001-5.379,5.498-12.76,19.139-14.924l0.002-6.451
	l12.39,0.02l-0.001,5.922c5.308,0.279,10.724,1.004,16.975,2.449c-0.624,2.006-3.328,10.705-3.328,10.705
	c-4.026-1.012-10.426-2.729-16.765-2.74c-0.463,0-0.926,0.008-1.39,0.027c-8.371,0.33-8.975,4.816-3.331,6.898
	c11.579,3.863,28.349,7.158,28.345,18.623C174.929,274.001,165.527,279.032,154.397,280.159z M223.039,302.247
	c9.046-4.396,16.559-9.531,22.405-15.306v18.89c0,26.209-43.752,47.459-97.723,47.459C93.752,353.29,50,332.04,50,305.831v-18.89
	c5.847,5.773,13.357,10.91,22.405,15.306c20.356,9.887,47.104,15.33,75.316,15.33C175.936,317.577,202.683,312.134,223.039,302.247z
	 M223.039,402.132c9.046-4.393,16.559-9.53,22.405-15.303v19.227c0,26.211-43.752,47.459-97.723,47.459
	c-53.97,0-97.722-21.248-97.722-47.459v-19.227c5.847,5.771,13.357,10.91,22.405,15.303c20.356,9.887,47.104,15.332,75.316,15.332
	C175.936,417.464,202.683,412.019,223.039,402.132z M223.039,352.189c9.046-4.395,16.559-9.532,22.405-15.305v18.887
	c0,26.211-43.752,47.46-97.723,47.46c-53.97,0-97.722-21.249-97.722-47.46v-18.887c5.847,5.771,13.357,10.91,22.405,15.305
	c20.356,9.886,47.104,15.33,75.316,15.33C175.936,367.521,202.683,362.075,223.039,352.189z M439.595,402.132
	c9.046-4.393,16.56-9.53,22.405-15.303v19.227c0,26.211-43.752,47.459-97.723,47.459s-97.723-21.248-97.723-47.459v-19.227
	c5.848,5.771,13.357,10.91,22.405,15.303c20.356,9.887,47.104,15.332,75.316,15.332
	C392.491,417.464,419.238,412.019,439.595,402.132z M439.595,302.247c9.046-4.396,16.56-9.531,22.405-15.306v18.89
	c0,26.209-43.752,47.459-97.723,47.459s-97.723-21.25-97.723-47.459v-18.89c5.848,5.773,13.357,10.91,22.405,15.306
	c20.356,9.887,47.104,15.33,75.316,15.33C392.491,317.577,419.238,312.134,439.595,302.247z M439.595,352.189
	c9.046-4.395,16.56-9.532,22.405-15.305v18.887c0,26.211-43.752,47.46-97.723,47.46s-97.723-21.249-97.723-47.46v-18.887
	c5.848,5.771,13.357,10.91,22.405,15.305c20.356,9.886,47.104,15.33,75.316,15.33C392.491,367.521,419.238,362.075,439.595,352.189z
	 M439.595,252.247c9.046-4.395,16.56-9.531,22.405-15.305v18.889c0,26.209-43.752,47.459-97.723,47.459s-97.723-21.25-97.723-47.459
	v-18.889c5.848,5.773,13.357,10.91,22.405,15.305c20.356,9.887,47.104,15.33,75.316,15.33
	C392.491,267.577,419.238,262.134,439.595,252.247z M364.277,58.485c-53.971,0-97.723,21.248-97.723,47.461
	c0,26.209,43.752,47.457,97.723,47.457S462,132.155,462,105.946C462,79.733,418.248,58.485,364.277,58.485z M370.953,130.218
	l-0.003,6.355l-12.39-0.021v-5.686c-5.941-0.383-13.795-1.979-19.577-4.326l4.101-10.475c5.365,1.547,12.751,3.42,19.131,3.432
	c1.407,0.002,2.767-0.086,4.045-0.289c6.182-0.979,7.739-5.051,0.465-7.363c-6.143-2.037-27.293-4.193-27.291-17.174
	c0.001-5.379,5.498-12.762,19.14-14.924l0.002-6.453l12.39,0.021l-0.001,5.92c5.309,0.279,10.725,1.004,16.976,2.451
	c-0.624,2.006-3.328,10.703-3.328,10.703c-4.026-1.012-10.426-2.729-16.766-2.74c-0.463,0-0.926,0.01-1.39,0.027
	c-8.371,0.33-8.975,4.816-3.331,6.898c11.579,3.865,28.349,7.16,28.345,18.623C391.484,124.06,382.083,129.091,370.953,130.218z
	 M439.595,152.304c9.046-4.395,16.56-9.529,22.405-15.303v18.887c0,26.211-43.752,47.459-97.723,47.459
	s-97.723-21.248-97.723-47.459v-18.887c5.848,5.773,13.357,10.908,22.405,15.303c20.356,9.887,47.104,15.332,75.316,15.332
	C392.491,167.636,419.238,162.19,439.595,152.304z M439.595,202.247c9.046-4.393,16.56-9.531,22.405-15.305v18.887
	c0,26.211-43.752,47.461-97.723,47.461s-97.723-21.25-97.723-47.461v-18.887c5.848,5.773,13.357,10.912,22.405,15.305
	c20.356,9.887,47.104,15.33,75.316,15.33C392.491,217.577,419.238,212.134,439.595,202.247z"/>
</svg>
