<?xml version="1.0" encoding="utf-8"?>
<!-- Generator: Adobe Illustrator 16.0.0, SVG Export Plug-In . SVG Version: 6.00 Build 0)  -->
<!DOCTYPE svg PUBLIC "-//W3C//DTD SVG 1.1//EN" "http://www.w3.org/Graphics/SVG/1.1/DTD/svg11.dtd">
<svg version="1.1" id="Layer_1" xmlns="http://www.w3.org/2000/svg" xmlns:xlink="http://www.w3.org/1999/xlink" x="0px" y="0px"
	 width="512px" height="512px" viewBox="0 0 512 512" enable-background="new 0 0 512 512" xml:space="preserve">
<path id="thumb-5-icon" fill="#FF6633" d="M362.674,211.192h63.647c4.088,18.767-1.311,46.46-29.017,46.46H362.68
	C333.928,257.652,334.211,211.192,362.674,211.192z M345.665,324.471h57.394c29.688,0,32.104-31.812,28.539-46.461h-85.933
	C314.337,278.01,315.01,324.471,345.665,324.471z M428.012,345.133h-82.347c-30.961,0-30.984,46.807,0,46.807h50.64
	C427.265,391.939,431.66,363.947,428.012,345.133z M377.295,459.777c30.96,0,36.709-29.302,36.709-46.807c0.69,0-61.336,0-61.336,0
	c-30.96,0-30.985,46.807,0,46.807H377.295z M322.484,405.215c-25.15-15.951-27.229-51.672-4.104-70.413
	c-25.959-21.038-19.453-62.094,11.562-74.188c-10.993-14.641-10.187-38.347-0.418-53.495c-6.24-3.337-11.739-6.902-16.611-10.427
	c19.47-54.293,23.981-136.44-7.59-145.518c-27.269-7.838-34.478,25.328-41.587,48.085c-18.646,59.682-67.63,138.576-184.591,138.576
	c0,0,0,120.557,0,167.096c134.971,0,167.311,49.387,227.703,56.188c3.675,0.413,7.274,0.702,10.809,0.884
	C304.857,444.561,306.857,420.357,322.484,405.215z"/>
</svg>
